<svg width="148" height="40" xmlns="http://www.w3.org/2000/svg">
    <g fill="#FFF" fill-rule="nonzero" opacity=".4">
        <path d="M38.954 7.891v23.94h-4.891V7.89zM58.916 15.69v16.193c0 5.027-3.921 8.117-8.719 8.117-4.625 0-8.08-2.865-8.413-6.91l4.878.027c.2 1.724 1.714 2.467 3.708 2.467 1.887 0 3.641-1.008 3.641-3.634v-2.07c-1.249.81-2.844 1.287-4.625 1.287-4.465 0-8.04-3.607-8.04-7.759 0-4.827 3.588-8.063 8.04-8.063 1.795 0 3.376.477 4.625 1.286v-.875l4.905-.066zm-4.891 9.535v-3.939c-.997-1.445-2.38-1.923-3.748-1.923-2.406 0-4.08 1.605-4.08 4.045 0 1.79 1.674 3.754 4.08 3.754 1.369-.013 2.751-.504 3.748-1.937zM78.426 23.568c0 4.986-3.695 8.54-8.652 8.54-4.997 0-8.692-3.554-8.692-8.54 0-4.947 3.695-8.568 8.692-8.568 4.957 0 8.652 3.62 8.652 8.568zm-4.718 0c0-2.348-1.542-4.244-3.934-4.244-2.42 0-3.96 1.896-3.96 4.244 0 2.413 1.54 4.217 3.96 4.217 2.379-.013 3.934-1.804 3.934-4.217zM108.794 15.716v16.088l-4.798.026v-.915c-1.25.81-2.844 1.313-4.625 1.313-4.465 0-8.04-3.78-8.04-8.435 0-4.682 3.588-8.461 8.04-8.461 1.794 0 3.376.504 4.625 1.313v-.916l4.798-.013zm-4.798 10.544v-4.934c-1.01-1.432-2.419-1.83-3.828-1.83-2.458 0-4.16 1.963-4.16 4.31 0 2.321 1.702 4.284 4.16 4.284 1.41-.013 2.818-.398 3.828-1.83zM128.517 23.09v8.74h-4.719v-8.17c0-2.626-1.315-4.018-3.654-4.018-1.223 0-2.565.703-3.722 2.056V31.83h-4.824V15.743h4.824v1.22c1.316-1.048 2.845-1.618 4.665-1.618 4.306 0 7.43 3.024 7.43 7.745zM31.83 31.817h-4.984l-3.243-12.03-6.977 12.03h-5.569l10.766-18.62-1.728-6.473L5.569 31.83H0L18.407 0h4.877l2.14 7.905h5.037l-3.442 5.968zM148 7.891v23.94h-4.89v-.916c-1.25.81-2.845 1.313-4.626 1.313-4.465 0-8.04-3.78-8.04-8.461 0-4.656 3.588-8.435 8.04-8.435 1.794 0 3.376.504 4.625 1.313V7.878l4.891.013zm-4.89 18.382V21.3c-1.024-1.446-2.446-1.844-3.855-1.844-2.472 0-4.186 1.976-4.186 4.31 0 2.375 1.714 4.35 4.186 4.35 1.409 0 2.83-.397 3.854-1.843zM90.453 19.801c-1.063.133-3.561.252-5.023 2.268v9.775h-4.825V15.769h4.825v1.207c1.103-.942 2.764-1.499 5.023-1.273"/>
    </g>
</svg>
