<svg width="193" height="40" xmlns="http://www.w3.org/2000/svg">
    <g fill="none" fill-rule="evenodd" opacity=".4">
        <path d="M7.925.633h18.341l.84-.008h1.865c.892 0 2.36-.045 4.433-.13l.775-.032c-.113 1.607-.134 2.24-.138 3.093l-.012 2.469-.008 2.338v13.06c0 8.225-1.862 11.018-10.724 15.398-.393.195-4.912 2.452-5.382 2.704l-.442.24-.454.235-.45-.236-.455-.24c-1.862-.974-3.752-1.834-5.22-2.557C2.774 32.981.174 30.151.174 21.423V8.363L.15 6.025.142 3.556C.134 2.066.118 1.583 0 .463l.775.032c2.04.081 3.56.13 4.445.13h1.853l.852.008z" fill="#211E1E"/>
        <path fill="#000" d="m17.019 39.2 3.492-1.713.089-.033-.024-.077V21.301l-.033-.098.11.021h12.634l.11.032-.033-.138v-6.816l.032-.11-.11.033H20.654l-.11.02.033-.11V1.349l.024-.11-.097.033h-6.92l-.11-.033.033.11v12.788l.024.11-.101-.021H.892l-.11-.033.033.11v6.881l-.032.073.11-.032h12.536l.101-.02-.024.13v16.01l-.032.13.085.025z"/>
        <path fill="#FFF" d="m.95 1.27-.167-.032.032.122v12.8l-.032.098.154-.033h12.484l.105.033-.02-.11V1.328l.02-.09-.105.033zM20.71 1.27l-.154-.031.02.121v12.8l-.02.098.142-.033h12.581l.118.033-.033-.11V1.327l.033-.09-.118.033zM13.474 21.228H.86l-.077-.033.032.086v.763c0 7.027 2.345 10.446 9.56 13.937l2.28 1.104.795.37.064.076-.008-.11V21.294l.024-.098-.056.033zM20.64 21.228l-.084-.032.02.072v16.11l-.02.12.085-.097.722-.328c9.795-4.617 12.001-7.365 12.001-14.965v-.807l.033-.11-.11.033-12.646.003"/>
        <g fill="#211E1E">
            <path d="M2.868 14.858c.032.037.06.069.077.085.04.05.069.081.085.098l.102.102c.015.02.049.048.085.084l-.053.046-.11.097-.09.097-.031.037v.101c0 .886.231 1.487.722 1.885l.085.072-.085.058-.102-.01-.206-.024-.183-.032-.11-.02-.109.787h-.154l-.11-.788-.109.021a1.22 1.22 0 0 1-.174.032l-.215.024-.102.01c-.044 0-.08-.018-.08-.034 0-.02.015-.044.048-.068l.162-.126c.138-.105.227-.232.385-.556a.957.957 0 0 0 .11-.362c0-.231.037-.413.077-.413l.02-.407.012-.15-.044-.036-.09-.097-.11-.098-.04-.045.085-.085c.15-.15.167-.166.252-.285M7.005 14.858c.085.118.097.134.251.285.017.02.049.048.085.084l-.044.046-.11.097-.085.097-.053.037.021.15.02.407c.032.575.353 1.246.69 1.429.057.032.093.06.093.072 0 .03-.024.053-.053.053l-.141-.003-.208-.024-.186-.032-.106-.02-.109.787h-.142l-.11-.788-.11.021-.186.032-.207.024-.097.009-.016.003c-.044 0-.074-.018-.074-.037 0-.02.017-.049.045-.068l.163-.126c.146-.11.182-.167.385-.557.077-.154.118-.275.118-.36 0-.232.032-.415.065-.415l.024-.406.008-.15c-.012-.018-.025-.03-.032-.037l-.098-.097-.109-.098-.041-.045a8.045 8.045 0 0 0 .183-.186c.016-.018.048-.049.089-.098.017-.017.04-.048.077-.085M4.94 17.282l.077.09.077.097a.642.642 0 0 0 .098.098l.098.085-.053.044-.098.101-.1.085-.034.045v.102c0 .91.22 1.474.723 1.883l.085.074-.085.06-.098-.011-.21-.021-.183-.036-.11-.021-.11.788h-.149l-.114-.788-.11.02-.182.037-.207.02-.101.012h-.009c-.044 0-.077-.017-.077-.036 0-.018.02-.04.053-.069l.167-.125c.348-.269.587-1 .587-1.787v-.1l-.032-.045-.098-.086-.1-.102-.053-.044c.166-.143.247-.228.349-.37M9.09 17.282c.101.142.182.227.349.37l-.057.044-.098.101-.097.085-.033.045-.004.102c0 .592.174 1.307.374 1.538l.219.249c.015.02.056.053.117.097l.102.073-.09.061-.097-.012-.207-.021-.186-.036-.11-.021-.11.788h-.15l-.11-.788-.108.02-.187.037-.207.02-.097.013H8.29c-.04 0-.077-.017-.077-.037 0-.02.021-.045.05-.069l.157-.125c.345-.273.601-1.003.601-1.787v-.1l-.033-.045-.097-.086-.097-.102-.057-.044.101-.085c.045-.041.077-.073.098-.098l.077-.098.077-.09zM11.162 14.858c.085.118.098.134.247.285.021.02.053.048.09.084l-.045.046-.109.097-.085.097-.045.037.012.15.02.407c.033.564.362 1.254.69 1.429.057.032.09.06.09.072 0 .03-.018.053-.041.053l-.139-.003-.219-.024a1.036 1.036 0 0 1-.185-.032l-.098-.02-.106.787h-.154l-.11-.788-.113.03-.183.023-.206.024-.098.009-.015.003c-.042 0-.074-.018-.074-.037 0-.017.02-.044.049-.068l.162-.126c.142-.114.19-.183.382-.557.077-.154.117-.28.117-.36 0-.232.032-.415.064-.415l.025-.406.009-.15-.033-.037-.097-.097-.098-.098c-.008-.008-.028-.023-.057-.045.04-.036.07-.064.09-.085.052-.052.085-.085.097-.1a.865.865 0 0 0 .09-.099c.016-.017.04-.048.076-.085M22.932 14.837l.077.098.077.085c.053.062.085.098.098.11.02.021.053.048.097.09l-.053.04-.097.101-.1.085-.034.045v.094c0 .881.297 1.648.723 1.884.064.036.093.064.093.092l-.004.018-.09.02h-.097c-.13 0-.357-.04-.503-.084l-.11.783h-.153l-.106-.783a1.995 1.995 0 0 1-.503.085h-.097c-.066 0-.094-.012-.094-.037 0-.032.028-.06.094-.093.417-.22.717-1.006.717-1.883v-.094l-.032-.044-.098-.086-.096-.102-.057-.04c.044-.04.08-.069.097-.09a.934.934 0 0 0 .1-.109l.075-.085.076-.098M27.09 14.837l.077.098.089.085.098.11.085.09-.053.04-.098.101-.1.085-.034.045v.094c0 .868.3 1.652.723 1.884.064.036.093.064.093.092l-.004.018-.09.02h-.097c-.13 0-.357-.04-.502-.084l-.11.783h-.154l-.106-.783a1.84 1.84 0 0 1-.547.085c-.118 0-.142-.009-.142-.045 0-.029.024-.053.097-.085.09-.04.247-.203.34-.35.171-.275.273-.515.273-.656 0-.236.036-.427.077-.427l.02-.401.012-.143-.045-.044a1.843 1.843 0 0 0-.251-.228l.098-.09.1-.109.085-.085.066-.098M25.017 17.262c.037.036.06.064.077.084.04.05.073.082.09.102.012.013.04.049.089.102.02.02.057.04.093.081l-.053.045-.097.11-.101.084-.033.046.012.141.02.406c.033.597.346 1.242.69 1.43.065.036.093.064.093.097l-.008.012-.086.02h-.096c-.13 0-.357-.036-.504-.085l-.109.784h-.154l-.11-.784c-.146.053-.36.09-.547.09-.11 0-.138-.013-.138-.053 0-.03.028-.053.097-.082.086-.036.252-.207.341-.349.178-.292.284-.536.284-.653 0-.236.028-.427.065-.427l.02-.406.012-.141-.044-.046-.09-.084-.11-.11-.04-.045.085-.085c.155-.15.166-.167.251-.284M29.207 17.262c.036.036.061.064.077.084.04.05.073.082.09.102l.097.098c.02.017.049.044.085.085a.528.528 0 0 1-.04.045c-.066.061-.098.097-.11.11-.06.052-.094.08-.101.084-.005.01-.017.02-.034.046l.013.141.02.406c.033.597.345 1.242.69 1.43.064.036.093.064.093.097l-.008.012-.085.02h-.098c-.13 0-.357-.036-.503-.085l-.11.784h-.141l-.122-.784c-.146.053-.361.09-.543.09-.114 0-.142-.013-.142-.053 0-.03.028-.053.097-.082.086-.036.252-.207.341-.349.174-.292.283-.536.283-.653 0-.236.028-.427.066-.427l.02-.406.012-.141-.045-.046-.089-.084-.11-.11-.04-.045.085-.085c.154-.15.167-.167.252-.284M31.28 14.837l.076.098.09.085.097.11.085.09-.053.04-.097.101-.1.085-.029.045v.094c0 .868.296 1.652.717 1.884.065.036.094.064.094.092l-.004.018-.09.02h-.097c-.13 0-.357-.04-.503-.084l-.11.783h-.153l-.106-.783a1.84 1.84 0 0 1-.547.085c-.118 0-.143-.009-.143-.045 0-.029.025-.053.098-.085.09-.04.247-.203.34-.35.17-.275.272-.515.272-.656 0-.236.037-.427.077-.427l.021-.401.011-.143-.044-.044-.085-.086-.11-.102-.044-.04.085-.09.1-.109.086-.085.065-.098M15.133 26.12c.085.113.097.134.251.283.017.02.049.046.085.086l-.04.045-.114.097-.085.098-.044.044.012.143.02.405c.02.354.17.816.349 1.08.121.175.255.313.34.35.074.031.098.052.098.089 0 .036-.025.04-.154.04-.17 0-.393-.036-.536-.085l-.105.783h-.154l-.11-.783a2.094 2.094 0 0 1-.503.085h-.097c-.065 0-.09-.011-.09-.036 0-.033.025-.062.09-.094.106-.057.255-.207.337-.349.194-.32.284-.535.284-.654.004-.239.032-.426.068-.426l.02-.405.013-.143-.033-.044-.1-.098-.098-.097-.053-.045a.912.912 0 0 1 .085-.086c.053-.051.085-.084.098-.1a.865.865 0 0 0 .089-.098c.016-.02.04-.049.077-.085M19.026 26.12c.086.113.102.134.252.283l.089.086-.045.045-.109.097-.089.098-.04.044.008.143.024.405c.02.354.167.816.349 1.08.118.175.252.313.337.35.073.031.1.052.1.089 0 .036-.027.04-.153.04-.17 0-.393-.036-.536-.085l-.109.783h-.154l-.11-.783a2.114 2.114 0 0 1-.499.085h-.1c-.062 0-.09-.011-.09-.036 0-.033.028-.062.09-.094.108-.057.255-.207.34-.349.19-.32.283-.535.283-.654 0-.239.028-.426.066-.426l.02-.405.012-.143-.032-.044-.195-.195-.058-.045c.041-.04.07-.069.09-.086a2.14 2.14 0 0 0 .183-.199c.02-.02.044-.048.076-.084M17.043 29.655l.049.119.102.068.1.11.086.085-.045.044-.11.098c-.007.01-.035.04-.084.09-.013.009-.025.023-.045.044l.012.138.02.407c.033.592.366 1.282.69 1.429.072.036.097.057.097.09l-.012.02-.077.032-.098-.01-.219-.022a.964.964 0 0 1-.181-.033l-.102-.02-.117.787h-.143l-.11-.787-.109.02-.187.033-.206.023-.098.01-.011.002c-.05 0-.078-.02-.078-.053 0-.032.025-.057.09-.093.105-.057.255-.207.337-.345.194-.326.283-.537.283-.658 0-.235.032-.426.065-.426l.024-.407.013-.138-.037-.044-.097-.09-.098-.097-.057-.045.09-.084.097-.11.09-.09.076-.098M15.109 33.26l.077.098.089.09.098.109.072.102-.04.029-.098.097-.097.086-.033.044.009.143.025.405c.032.598.34 1.243.685 1.43.064.036.093.065.093.097l-.004.012-.09.02h-.097c-.089 0-.243-.02-.502-.073l-.11.776h-.15l-.11-.776c-.23.053-.405.077-.547.077-.114 0-.138-.011-.138-.052 0-.03.025-.049.093-.082.09-.036.252-.207.34-.35.18-.291.284-.53.284-.652 0-.236.03-.427.066-.427l.02-.405.012-.143c-.02-.017-.032-.032-.045-.044-.049-.045-.077-.077-.085-.086l-.109-.097-.045-.045.09-.085.096-.11.085-.089.066-.097M19.026 33.26l.066.098.09.09.08.121.105.073-.045.045-.109.097c-.008.01-.04.04-.089.086-.008.011-.02.029-.04.044l.008.143.024.405c.02.358.167.816.349 1.08.118.174.252.313.337.349.073.032.1.057.1.09 0 .036-.027.044-.145.044a2.42 2.42 0 0 1-.544-.077l-.109.775h-.154l-.11-.775a2.84 2.84 0 0 1-.499.073h-.1c-.062 0-.09-.008-.09-.036 0-.03.028-.062.09-.094.108-.052.255-.207.34-.35.19-.32.283-.53.283-.653 0-.235.028-.426.066-.426l.02-.405.012-.143-.032-.044-.098-.086-.097-.097-.058-.045.09-.085.097-.11.086-.089.076-.097zM17.043 22.56l.066.097.085.085.1.11.086.089-.045.04-.11.102-.084.085c-.013.012-.025.023-.045.045l.012.142.02.401c.033.594.373 1.3.69 1.434.07.029.093.053.093.08 0 .041-.025.05-.138.05-.142 0-.317-.024-.547-.073l-.117.783h-.143l-.11-.783c-.26.049-.413.073-.502.073h-.098c-.064 0-.093-.012-.093-.037 0-.032.029-.061.093-.093.106-.058.256-.207.337-.35.195-.32.284-.532.284-.657 0-.235.032-.427.064-.427l.025-.402.013-.141-.038-.045-.096-.085-.098-.102-.057-.04.09-.09.097-.109.09-.085.076-.098zM15.077 2.626c.036.037.06.07.076.085.041.049.069.082.09.102l.096.098.085.085-.04.045-.109.097c-.013.009-.04.04-.098.097-.008.01-.02.02-.032.037l.008.15.024.394c.021.381.191.91.35 1.092l.214.252c.013.011.053.044.123.097l.092.073-.092.057-.098-.009-.207-.023-.186-.033-.11-.02-.118.75-.134.037-.109-.787-.106.02-.186.033-.211.023-.114.012c-.04 0-.068-.017-.068-.037 0-.02.015-.045.045-.069.008-.008.064-.048.162-.125.142-.105.182-.167.38-.556.082-.155.122-.277.122-.362 0-.235.028-.426.065-.426l.02-.394.013-.15-.045-.037-.085-.097-.11-.097-.045-.045a.797.797 0 0 0 .085-.085c.155-.151.167-.167.253-.285M19.026 2.626c.086.118.102.134.252.285.02.02.048.049.089.085l-.045.045-.109.097-.089.098-.04.036.008.15.024.394c.033.577.357 1.267.686 1.441.056.033.092.058.092.073 0 .03-.02.053-.044.053l-.134-.003-.218-.023a.95.95 0 0 1-.187-.033l-.098-.02-.109.787h-.154l-.11-.787-.118-.012-.174.065-.207.023-.1.01-.013.003c-.04 0-.073-.018-.073-.037 0-.02.016-.045.049-.07l.158-.125c.146-.114.194-.182.38-.556.082-.154.122-.28.122-.362 0-.235.028-.426.066-.426l.02-.394.012-.15-.032-.036-.098-.098-.097-.097c-.012-.009-.028-.024-.056-.045.04-.036.068-.064.088-.085.053-.053.086-.085.097-.098l.086-.1c.02-.018.044-.05.076-.086M17.02 6.045l.076.084.09.102c.052.057.085.094.097.105.02.02.048.053.085.09l-.053.044-.097.098-.098.085-.032.045.008.142.013.373c.032.597.352 1.275.697 1.463.065.036.093.064.093.096l-.009.013-.085.023h-.096c-.13 0-.357-.041-.504-.09l-.109.788h-.15l-.11-.788c-.146.053-.365.09-.548.09-.117 0-.14-.009-.14-.045 0-.032.023-.056.096-.09.089-.036.248-.198.341-.349.17-.275.271-.515.271-.652 0-.236.034-.428.078-.428l.02-.405.012-.142a.254.254 0 0 1-.044-.045l-.085-.085-.11-.098-.045-.044.085-.09.102-.105c.049-.057.077-.09.085-.102a.79.79 0 0 0 .064-.085M15.068 9.45l.073.09.077.098c.02.023.053.056.097.097l.102.089c-.033.024-.049.036-.057.04l-.098.102-.13.13v.102c0 .576.171 1.3.362 1.502l.239.285c0 .002.04.036.122.1l.086.07-.086.06-.101-.011-.207-.02-.187-.033-.11-.024-.109.788h-.15l-.11-.788-.109.024-.186.032-.207.02-.098.012h-.016c-.04 0-.073-.017-.073-.036 0-.018.02-.045.049-.069l.162-.125c.361-.288.6-.99.6-1.787v-.102l-.036-.032-.098-.098a5.176 5.176 0 0 0-.097-.1c-.008-.004-.029-.021-.057-.042.045-.04.077-.069.102-.088.045-.042.077-.074.097-.098l.077-.098.077-.09zM19.007 9.45c.032.041.056.07.076.09.041.05.069.077.086.098.016.011.048.048.097.097l.09.089a.63.63 0 0 0-.053.04l-.232.232.012.155.02.401c.033.605.268 1.088.69 1.433l.085.069-.085.061-.101-.011-.207-.02-.182-.033-.11-.024-.11.788h-.154l-.122-.82c-.194.044-.202.08-.27.09l-.22.02-.097.011h-.013c-.036 0-.064-.017-.064-.036 0-.02.015-.045.044-.07l.167-.125c.138-.11.182-.167.38-.556.077-.15.118-.276.118-.361 0-.228.033-.415.065-.415l.024-.402.013-.154-.045-.032-.09-.098-.108-.101-.042-.041a2.87 2.87 0 0 1 .086-.09c.15-.149.166-.166.252-.283M10.834 7.692l.045.164c.036.15.068.268.085.353.137.62.255.787.555.787.175 0 .316-.098.36-.244l.066-.219c.017-.049.053-.08.106-.08.117 0 .173.125.178.397.004.081.029.26.077.535.028.167.045.326.045.48a.804.804 0 0 1-.065.34c.036.216.065.504.065.67 0 .269-.049.52-.134.65.049.182.056.256.056.414 0 .114-.011.24-.032.362-.049.264-.057.328-.057.377 0 .053.008.102.025.146.02.065.032.11.032.134 0 .03-.016.052-.032.052l-.22-.084-.238-.134a1.036 1.036 0 0 1-.252-.195c-.211.191-.276.219-.831.37a.803.803 0 0 0-.24.1c-.068.05-.117.077-.146.077-.093 0-.137-.153-.137-.462 0-.235.024-.447.068-.609a1.219 1.219 0 0 0-.393-.098c-.016 0-.069.01-.166.021l-.041.003c-.032 0-.057-.049-.057-.105 0-.041.028-.146.065-.236l.11-.264a.961.961 0 0 1 .263-.317.64.64 0 0 1 .285-.162l.389-.077c.235-.044.373-.17.373-.332 0-.155-.102-.264-.337-.345l-.47-.163a2.832 2.832 0 0 1-.427-.207c-.26-.154-.304-.175-.364-.175-.094 0-.15.069-.15.191 0 .195.125.333.308.333a.28.28 0 0 0 .11-.024.416.416 0 0 1 .109-.032c.053 0 .077.03.077.085l-.005.045-.02.187c-.016.158-.12.353-.348.658l-.098.13c-.09.349-.308.669-.588.86a.96.96 0 0 0-.121.09c-.008.01-.04.06-.09.153-.02.04-.093.13-.214.26a1.87 1.87 0 0 1-.276.252c-.122.093-.196.159-.215.2l-.11.182a.1.1 0 0 1-.089.056c-.097 0-.187-.102-.24-.275-.04-.126-.076-.163-.157-.163a.903.903 0 0 0-.191.033l-.154.023h-.394c-.195 0-.47.049-.6.106a.306.306 0 0 1-.11.036c-.028 0-.044-.011-.072-.069a.137.137 0 0 1-.025-.085c0-.2.142-.577.329-.873.117-.191.158-.236.296-.353-.045-.183-.166-.324-.309-.369l-.182-.053c-.028-.01-.045-.03-.045-.057 0-.053.09-.134.251-.22.212-.109.427-.174.597-.174.182 0 .356.073.56.232.296.23.377.272.519.272.235 0 .454-.212.454-.434 0-.151-.077-.313-.288-.581-.304-.394-.393-.597-.393-.889 0-.179.057-.406.121-.508l.11-.166a.186.186 0 0 0 .037-.105c0-.074-.086-.122-.2-.122-.17 0-.502.122-.766.284-.13.077-.22.174-.22.231 0 .033.017.065.045.086l.122.077c.012.009.025.023.025.044 0 .018-.02.05-.045.085l-.219.285a3.882 3.882 0 0 1-.458.48c-.057.051-.093.084-.11.108 0 .004-.032.058-.09.163-.076.146-.283.361-.478.491-.08.057-.13.098-.153.122a.917.917 0 0 0-.086.154c-.029.053-.077.13-.142.227a2.32 2.32 0 0 1-.264.338l-.304.308c-.097.093-.178.276-.304.678-.081.24-.15.382-.19.382-.017 0-.049-.024-.085-.065-.216-.248-.402-.394-.5-.394-.024 0-.064.018-.121.052a.781.781 0 0 1-.296.11l-.402.077c-.304.058-.426.126-.6.329-.04.049-.077.078-.093.078-.037 0-.062-.057-.062-.13l.013-.102.053-.296c.06-.313.134-.549.219-.707l.186-.34a.359.359 0 0 0 .053-.18c0-.251-.26-.479-.576-.507-.082-.01-.114-.029-.114-.073 0-.057.09-.163.211-.255.219-.167.504-.285.685-.285.114 0 .285.045.496.13l.238.098a.59.59 0 0 0 .244.057c.252 0 .499-.232.803-.756.138-.235.195-.406.195-.56 0-.276-.13-.443-.345-.443a.684.684 0 0 0-.47.207c-.114.11-.17.228-.17.338l.004.122v.029c0 .102-.033.158-.094.158-.101 0-.25-.146-.682-.666-.32-.39-.389-.556-.4-.942-.374-.47-.464-.674-.464-1.006l.017-.228c-.26-.308-.332-.475-.332-.76 0-.1.015-.162.08-.287-.129-.192-.174-.276-.21-.426l-.053-.228a1.191 1.191 0 0 0-.174-.405c-.102-.143-.11-.16-.11-.208 0-.13.086-.179.471-.271a1.698 1.698 0 0 1-.025-.245c0-.064.008-.125.032-.26l.078-.405a2.08 2.08 0 0 0 .048-.349c0-.078-.012-.13-.081-.35a1.066 1.066 0 0 0-.097-.25.369.369 0 0 1-.065-.147c0-.04.025-.065.073-.065.11 0 .393.174.689.418.63.52.755.727.84 1.356.008.048.02.122.032.22.3.222.46.486.46.77 0 .228-.083.491-.22.703l-.215.337a.666.666 0 0 0-.097.36c0 .209.057.399.202.659.17.292.313.414.491.414.284 0 .539-.504.539-1.072v-.077l-.004-.196c0-.109.008-.222.025-.36.02-.17.028-.277.032-.317l.012-.26.005-.175c0-.061-.037-.121-.115-.206l-.238-.264c-.35-.379-.54-.735-.54-1.003 0-.333.24-.581.556-.581.065 0 .122.012.23.04V2.88c0-.48.102-.837.232-.837l.053.018.198.175.24.154.065.064c0-.137.008-.15.142-.304.032-.04.085-.11.154-.211.057-.077.089-.134.11-.162.015-.03.032-.061.053-.098.028-.056.056-.08.088-.08.033 0 .057.04.097.157.025.074.041.094.228.26a1.4 1.4 0 0 1 .134.142c.015.03.044.105.085.22.008.02.016.048.032.089a.626.626 0 0 1 .22-.2l.161-.097a.39.39 0 0 1 .122-.056c.016 0 .037.022.053.064.02.042.048.094.089.167.117.203.155.3.155.393v.24c.356.114.49.3.49.682 0 .28-.146.6-.426.934-.187.223-.21.267-.21.426 0 .808.563 1.275 1.553 1.287l.73.011c.47.01.75.053 1.188.196.52.17.669.21.82.21a.26.26 0 0 0 .142-.044c.04-.029.064-.064.064-.098 0-.153-.268-.275-1.147-.523C8.38 5.546 7.613 4.82 7.613 3.626c0-.921.767-1.636 1.756-1.636.32 0 .811.085 1.095.187l.447.166c.08.03.158.045.23.045.155 0 .232-.126.236-.386.004-.138.036-.183.126-.183.125 0 .32.16.498.403.179.251.297.532.297.718 0 .248-.118.423-.386.572-.243.375-.543.545-.95.545-.315 0-.761-.179-1.504-.602-.26-.145-.389-.194-.527-.194-.19 0-.316.114-.316.285 0 .154.122.26.438.369.475.166.588.231.775.426.555.097.798.195 1.147.46.958.304 1.55.957 1.55 1.708 0 .726-.49 1.25-1.176 1.25-.163 0-.264-.012-.516-.065M31.194 7.692l.045.164.085.353c.138.62.256.787.556.787.174 0 .316-.098.36-.244l.065-.219a.105.105 0 0 1 .106-.077c.118 0 .183.13.19.394.004.101.025.28.066.535.028.183.044.354.044.508 0 .11-.016.175-.065.312l.02.13c.037.215.045.3.045.402 0 .467-.02.605-.13.788.045.179.058.264.058.394 0 .081-.013.199-.037.382l-.044.328.011.195c.028.073.04.118.04.134 0 .03-.015.052-.04.052l-.22-.085-.238-.133a1.036 1.036 0 0 1-.251-.195c-.212.187-.24.202-.491.272-.362.102-.496.146-.568.199-.069.048-.122.076-.15.076-.086 0-.146-.166-.146-.405 0-.35.02-.532.077-.666-.211-.073-.321-.098-.398-.098-.028 0-.045 0-.158.021l-.049.003c-.032 0-.053-.04-.053-.105 0-.106.077-.32.179-.5.138-.243.361-.447.536-.479l.393-.077c.23-.044.369-.17.369-.332 0-.155-.102-.261-.336-.346l-.458-.162a2.606 2.606 0 0 1-.439-.207 7.042 7.042 0 0 0-.24-.143.239.239 0 0 0-.117-.032c-.101 0-.158.07-.158.183 0 .187.142.34.316.34.04 0 .077-.007.11-.023.053-.02.085-.032.1-.032.05 0 .086.049.086.118 0 .195-.121.527-.251.69l-.13.167-.098.13c-.036.28-.311.681-.587.86a.649.649 0 0 0-.122.09c-.008.01-.036.06-.09.153a1.63 1.63 0 0 1-.214.26 1.87 1.87 0 0 1-.276.252 1.055 1.055 0 0 0-.22.2l-.104.182c-.025.04-.053.056-.085.056-.098 0-.187-.102-.244-.275-.04-.126-.073-.163-.158-.163a.947.947 0 0 0-.191.033l-.154.023h-.38c-.208 0-.484.049-.614.106a.286.286 0 0 1-.11.036c-.056 0-.085-.057-.085-.166 0-.345.264-.873.613-1.214-.052-.199-.158-.333-.296-.37-.122-.032-.19-.052-.194-.052-.025-.013-.038-.033-.038-.053 0-.069.082-.138.253-.223.311-.147.4-.175.575-.175.2 0 .365.069.572.232.296.23.377.27.52.27.23 0 .454-.21.454-.433 0-.154-.081-.32-.289-.58-.287-.375-.393-.614-.393-.93 0-.212.044-.325.231-.633a.28.28 0 0 0 .045-.115c0-.06-.098-.113-.207-.113-.117 0-.263.04-.459.13-.328.15-.526.292-.526.377 0 .033.024.07.056.094l.11.077c.012.009.02.023.02.045a.145.145 0 0 1-.045.084 8.05 8.05 0 0 0-.215.285 2.61 2.61 0 0 1-.458.48.394.394 0 0 0-.11.108l-.089.164c-.073.137-.288.364-.466.49a1.464 1.464 0 0 0-.154.122.708.708 0 0 0-.097.155 3.12 3.12 0 0 1-.406.564l-.296.309c-.081.089-.199.34-.316.677-.09.264-.146.382-.187.382-.016 0-.049-.023-.085-.065-.21-.244-.402-.394-.495-.394a.385.385 0 0 0-.126.053.837.837 0 0 1-.296.11l-.39.076c-.327.066-.461.134-.612.33-.036.049-.068.077-.09.077-.035 0-.063-.057-.063-.134l.011-.098c0-.008.02-.11.053-.296.057-.309.138-.569.219-.707l.195-.34a.35.35 0 0 0 .056-.175c0-.252-.234-.459-.587-.512-.073-.011-.11-.04-.11-.08 0-.05.085-.147.219-.25.231-.174.487-.283.665-.283.122 0 .284.045.499.13l.244.098c.089.04.17.056.238.056.256 0 .504-.231.808-.755.137-.236.194-.406.194-.56 0-.276-.125-.443-.34-.443a.657.657 0 0 0-.466.207c-.119.122-.179.24-.179.35l.004.11.004.056c0 .089-.028.13-.093.13-.085 0-.179-.082-.369-.305a14.635 14.635 0 0 0-.304-.36c-.333-.39-.402-.545-.414-.942-.373-.472-.462-.736-.462-1.007l.011-.228c-.263-.317-.316-.443-.316-.755 0-.142.009-.178.065-.292-.13-.192-.17-.276-.207-.427l-.053-.227a1.171 1.171 0 0 0-.174-.405c-.097-.143-.11-.164-.11-.204 0-.113.11-.186.382-.256l.09-.02a1.673 1.673 0 0 1-.026-.244c0-.064.009-.126.033-.26l.077-.406c.028-.158.045-.275.045-.356 0-.094-.013-.172-.065-.342a1.195 1.195 0 0 0-.11-.252c-.04-.06-.065-.109-.065-.141 0-.037.037-.07.085-.07a.29.29 0 0 1 .11.037c.369.203.77.52 1.058.84.248.277.325.503.382 1.117.337.248.462.474.462.828 0 .21-.068.414-.223.645l-.215.337a.745.745 0 0 0-.101.374c0 .194.06.381.211.645.162.288.308.414.482.414.285 0 .544-.495.544-1.04v-.4l.028-.264.025-.317.02-.26.008-.147c0-.109-.02-.141-.357-.499-.369-.398-.543-.734-.543-1.043 0-.292.251-.54.555-.54.062 0 .118.012.228.041v-.13l.011-.227.066-.285c.053-.228.077-.268.153-.268l.053.017.199.175.24.155.064.064c.017-.137.029-.162.142-.304a2.78 2.78 0 0 0 .155-.211l.109-.162.065-.098c.04-.064.06-.085.09-.085.028 0 .047.04.085.162a.301.301 0 0 0 .096.142l.143.118c.113.097.19.244.24.45.085-.11.13-.15.217-.198l.175-.097c.065-.037.102-.058.114-.058.011 0 .032.024.049.066.024.06.056.113.09.166.14.228.153.256.153.41l-.004.093v.13c.357.098.495.288.495.679 0 .296-.134.6-.418.937-.186.224-.22.296-.22.463 0 .77.585 1.239 1.562 1.25l.723.012c.47.009.754.057 1.188.195.506.167.67.21.823.21.11 0 .202-.06.202-.136 0-.16-.262-.281-1.143-.528-1.801-.512-2.568-1.24-2.568-2.428 0-.926.77-1.636 1.765-1.636a3.8 3.8 0 0 1 1.083.182l.45.167c.081.03.158.045.232.045.153 0 .215-.094.234-.386.013-.125.053-.183.134-.183.115 0 .337.18.5.403.166.23.283.535.283.734 0 .231-.121.41-.38.556-.245.374-.545.544-.95.544-.312 0-.84-.211-1.504-.6-.264-.151-.378-.195-.524-.195-.195 0-.325.109-.325.284 0 .158.118.255.443.37.519.186.628.247.774.426.556.097.8.194 1.148.458.994.321 1.55.939 1.55 1.725 0 .72-.487 1.235-1.164 1.235-.179 0-.272-.012-.528-.065M11.04 28.312c.098.244.13.361.143.515l.02.46c.02.458.17.685.459.685.105 0 .194-.029.243-.077l.117-.118.049-.018c.077 0 .117.053.117.143l-.011.178c-.009.082.004.248.044.503.02.147.032.297.032.439 0 .235-.016.324-.101.532.077.215.121.458.121.661 0 .236-.04.398-.13.532.04.187.053.264.053.37 0 .11-.011.248-.044.414a2.238 2.238 0 0 0-.04.524v.029c0 .07-.02.106-.065.106-.04 0-.09-.032-.134-.09-.066-.085-.11-.117-.159-.117-.077 0-.1.04-.21.369-.037.102-.122.235-.264.406-.105.13-.175.235-.195.312-.036.134-.057.212-.065.232-.011.03-.04.053-.064.053l-.017.003c-.179 0-.385-.386-.596-1.116-.061-.208-.138-.298-.247-.298a.224.224 0 0 0-.191.122l-.065.155c-.012.024-.033.045-.057.045-.085 0-.219-.163-.304-.362a1.467 1.467 0 0 1-.106-.503c0-.341.253-.597 1.015-1.027.328-.187.458-.423.458-.853 0-.337-.101-.531-.393-.755-.232-.17-.365-.24-.487-.24-.106 0-.183.07-.183.16 0 .1.057.166.199.214.17.058.244.118.244.196 0 .068-.074.214-.187.393a1 1 0 0 1-.353.361c-.05.3-.19.492-.524.711-.064.186-.1.256-.219.401l-.226.298a.968.968 0 0 0-.163.336c-.024.167-.04.199-.105.199-.085 0-.264-.154-.442-.382a.542.542 0 0 1-.142-.361c-.114.09-.15.102-.37.13a.99.99 0 0 0-.295.078c-.166.088-.223.113-.251.113-.045 0-.062-.024-.066-.102l-.012-.243c0-.329.13-.714.329-.97-.191-.167-.381-.268-.536-.285-.064-.009-.08-.017-.08-.04 0-.04.044-.126.105-.2a1.47 1.47 0 0 1 .194-.218c.155-.134.422-.232.633-.232.142 0 .349.052.62.154a.78.78 0 0 0 .264.057c.118 0 .187-.077.187-.215 0-.198-.097-.511-.316-1.011-.15-.337-.22-.564-.22-.718 0-.382.179-.771.402-.886a.449.449 0 0 0-.244-.064c-.105 0-.194.029-.332.11-.162.093-.251.174-.251.23 0 .022.032.058.089.094.085.062.098.081.098.162 0 .269-.224.633-.536.865-.069.386-.243.613-.588.775-.049.211-.078.269-.24.504-.287.402-.357.527-.405.755-.029.118-.053.166-.089.166-.049 0-.142-.072-.252-.19a2.481 2.481 0 0 1-.175-.208c-.044-.072-.068-.141-.117-.349a.433.433 0 0 1-.154.03l-.163-.01h-.109c-.239 0-.495.054-.62.135a.226.226 0 0 1-.097.04c-.07 0-.127-.145-.127-.328 0-.394.11-.718.366-1.076a1.882 1.882 0 0 1-.207-.2.43.43 0 0 0-.09-.076l-.12-.064c-.041-.021-.066-.05-.066-.073 0-.057.159-.208.349-.334.21-.134.377-.194.531-.194.179 0 .272.044.495.239.154.134.26.198.337.198.052 0 .109-.036.154-.096a.298.298 0 0 0 .057-.168c0-.206-.248-.56-.524-.742a1.214 1.214 0 0 0-.653-.208c-.304 0-.563.151-.68.394l-.12.252c-.027.057-.063.09-.104.09-.07 0-.106-.033-.353-.32l-.283-.326a.843.843 0 0 1-.175-.285.475.475 0 0 0-.057-.141.402.402 0 0 0-.11-.09c-.218-.154-.377-.462-.466-.905a2.935 2.935 0 0 1-.032-.142c-.268-.329-.43-.735-.43-1.084 0-.048.004-.069.024-.15-.154-.158-.175-.195-.292-.613-.09-.296-.146-.426-.251-.568-.029-.037-.045-.065-.045-.086 0-.057.09-.105.251-.13.15-.024.159-.029.22-.029l.214.018-.011-.3c0-.175.011-.29.056-.5.02-.101.032-.18.032-.228 0-.018-.007-.081-.02-.186a1.684 1.684 0 0 0-.032-.163.28.28 0 0 1-.025-.093c0-.037.025-.053.066-.053a.38.38 0 0 1 .14.05c.192.093.35.185.472.279.377.296.673.751.673 1.03l-.008.086c-.013.098-.021.155-.021.163 0 .045.029.11.078.175l.117.166c.11.146.179.313.179.426 0 .101-.025.147-.2.402-.134.19-.186.333-.186.49 0 .196.077.444.22.691.13.228.275.35.421.35.243 0 .349-.216.385-.796.021-.304.05-.58.09-.832l.008-.151c0-.064-.02-.105-.11-.211l-.324-.381c-.313-.366-.41-.552-.41-.812 0-.3.2-.512.487-.512l.13.012v-.085c0-.069.016-.166.053-.296.068-.236.153-.415.202-.415.012 0 .049.018.106.053.015.011.08.04.194.077.061.02.106.045.22.11.052-.187.088-.276.174-.381.142-.183.3-.33.357-.33.032 0 .097.049.178.13l.207.22c.032.036.073.108.121.206l.04.102c.058-.036.103-.061.135-.077a1.32 1.32 0 0 1 .174-.098c.13-.065.2-.097.203-.101a.374.374 0 0 1 .114-.057c.036 0 .056.069.138.43.056.248.064.301.077.48.349.048.515.247.515.624 0 .354-.174.703-.547 1.101-.102.11-.127.162-.127.264 0 .965.338 1.27 1.546 1.396.743.078.962.125 1.853.394.47.142.739.2.913.2.207 0 .32-.075.32-.209 0-.202-.145-.268-1.013-.45-2.02-.426-2.815-1.116-2.815-2.452 0-.95.709-1.664 1.659-1.664.417 0 .794.125 1.386.466.548.321.661.373.787.373.147 0 .204-.092.204-.328 0-.154.047-.228.14-.228.09 0 .22.09.341.228.179.215.253.325.253.622 0 .393-.211.653-.625.767-.04.048-.077.085-.098.109-.222.252-.421.337-.779.337-.311 0-.7-.125-.964-.317l-.524-.37c-.227-.162-.393-.23-.552-.23-.222 0-.356.134-.356.357 0 .22.145.398.381.475l.491.15c.175.057.26.09.47.2.122-.021.179-.025.243-.025.309 0 .637.082.926.232.093.045.157.077.194.085l.276.077c.617.175 1.123.87 1.123 1.547 0 .77-.5 1.25-1.31 1.25l-.251-.011zM30.026 28.15c.191.251.458.414.677.414.066 0 .187-.018.293-.046a.871.871 0 0 1 .145-.02c.053 0 .077.02.077.07 0 .036-.028.13-.056.202a.94.94 0 0 0-.065.2l-.045.226-.109.2-.155.14-.04.041v.151c0 .264-.081.418-.296.56l-.077.057-.02.086a2.623 2.623 0 0 1-.11.381 2.19 2.19 0 0 1-.206.309c-.134.17-.22.313-.277.446-.044.11-.076.138-.149.138-.106 0-.212-.13-.232-.292-.024.032-.04.057-.053.065l-.13.089-.21.142c-.09.061-.15.106-.175.13l-.117.121a.098.098 0 0 1-.065.033c-.053 0-.11-.093-.166-.276l-.11-.357a1.254 1.254 0 0 1-.041-.354c0-.182.013-.243.074-.39-.22.025-.276.037-.39.078a.366.366 0 0 1-.097.02c-.037 0-.057-.022-.057-.064 0-.024.02-.102.044-.162l.143-.374c.11-.288.462-.548.746-.548.069 0 .158.02.28.057.069.023.125.037.162.037.13 0 .227-.094.227-.211 0-.058-.037-.122-.085-.143-.02-.01-.15-.049-.394-.121-.182-.053-.275-.122-.479-.358-.149-.175-.21-.223-.262-.223-.042 0-.066.03-.066.078l.009.145.004.066c0 .303-.09.592-.309.994l-.304.556c-.146.264-.206.463-.206.665 0 .22.093.415.219.447l.162.045c.02.003.04.018.057.032.02.024.032.045.032.066 0 .02-.02.056-.057.096-.016.024-.085.11-.194.253-.191.247-.309.336-.536.405-.134.321-.349.507-.73.634l-.045.077c-.13.228-.417.434-.604.434h-.04c-.025.203-.167.41-.382.56-.15.101-.231.163-.25.183a.451.451 0 0 0-.054.097c-.049.11-.097.155-.158.155-.114 0-.211-.11-.28-.317-.045.03-.077.053-.098.065-.125.09-.194.134-.206.143-.053.023-.179.06-.385.109-.264.065-.496.179-.556.272l-.097.166-.045.018c-.053 0-.113-.074-.142-.17a2.945 2.945 0 0 1-.097-.613c0-.39.13-.642.523-1.036v-.093c0-.605.458-1.015 1.135-1.015l.11.003.369.024h.036c.204 0 .386-.077.589-.245.268-.215.345-.352.345-.596 0-.077-.025-.167-.106-.439a1.826 1.826 0 0 1-.081-.515c0-.45.332-1.01.779-1.32.117-.081.202-.186.202-.247 0-.023-.011-.045-.028-.045-.028 0-.081.03-.142.085a1.103 1.103 0 0 1-.26.162l-.173.085-.2.077c-.06.024-.089.057-.089.098 0 .024.008.061.025.102.016.036.02.064.02.08 0 .025-.016.066-.053.127l-.15.251c-.153.249-.26.35-.45.435-.122.361-.3.544-.556.58-.206.414-.39.56-.754.601-.048.158-.138.292-.329.503-.072.085-.121.143-.138.175-.085.155-.092.163-.133.163-.049 0-.167-.074-.252-.163a.787.787 0 0 1-.097-.134l-.097-.174c-.032-.053-.066-.082-.106-.082l-.069.003-.24.037c-.149.02-.364.142-.437.251l-.13.195a.063.063 0 0 1-.052.033c-.098 0-.16-.215-.16-.573 0-.312.05-.523.155-.673l.309-.422a.334.334 0 0 0 .064-.167.227.227 0 0 0-.056-.142c-.061-.077-.127-.122-.174-.13l-.228-.032c-.04-.01-.057-.018-.057-.037 0-.017.013-.044.032-.073a.979.979 0 0 1 .277-.24c.267-.166.446-.231.628-.231s.386.065.572.187l.317.207c.044.03.097.044.15.044.145 0 .256-.085.36-.283.102-.191.147-.345.147-.507a.681.681 0 0 0-.702-.707c-.191 0-.381.077-.568.22a.347.347 0 0 0-.11.12l-.084.195c-.021.049-.053.077-.082.077-.052 0-.178-.158-.28-.36a2.36 2.36 0 0 1-.154-.394 1.791 1.791 0 0 1-.093-.545l.016-.296a1.111 1.111 0 0 1-.194-.674c0-.102.011-.178.077-.385-.094-.151-.122-.264-.122-.488l.012-.134.033-.154.02-.13c-.105-.138-.134-.231-.24-.71-.056-.273-.093-.39-.142-.46-.02-.032-.032-.052-.032-.064 0-.066.154-.122.324-.122l.155.012a.511.511 0 0 1-.045-.219c0-.134.028-.288.081-.434.056-.167.069-.215.069-.268 0-.13-.02-.264-.049-.333l-.09-.219c-.015-.049-.027-.085-.027-.114 0-.021.016-.03.057-.03.215 0 .62.232.945.537.316.3.421.543.421.994l-.02.24c.3.26.43.474.43.71 0 .17-.057.284-.219.446-.296.292-.365.443-.365.82 0 .581.174.894.495.894.28 0 .498-.305.535-.756l.033-.413a3.92 3.92 0 0 1 .052-.394c.016-.098.033-.228.033-.285 0-.145-.093-.332-.381-.665-.308-.357-.41-.553-.41-.832 0-.333.231-.581.547-.581a.38.38 0 0 1 .21.06c.005-.19.013-.227.123-.49.086-.212.175-.361.215-.361.016 0 .04.017.065.044.048.045.097.086.146.118.064.049.1.073.105.077.025.02.061.053.102.102.065-.249.138-.362.336-.56.155-.151.21-.196.24-.196.024 0 .053.02.077.053l.134.175.182.208c.073.08.097.15.13.34l.11-.065.174-.1a1.63 1.63 0 0 0 .134-.086c.028-.02.053-.033.068-.033.017 0 .038.03.049.078l.065.251.143.28c.043.085.056.15.056.284v.069l.073-.003c.215 0 .397.256.397.549 0 .39-.308.892-.71 1.156a.832.832 0 0 0-.048.292c0 .87.232 1.052 1.566 1.25.332.05.628.11.892.184.044.011.332.106.864.284.291.101.49.142.644.142.162 0 .252-.045.252-.13 0-.15-.22-.284-.888-.548l-.949-.37c-.966-.377-1.42-.965-1.42-1.834 0-1.011.759-1.77 1.769-1.77.38 0 .754.077 1.29.275.689.249.721.26.798.26.134 0 .208-.09.227-.284.017-.162.062-.227.15-.227.135 0 .28.121.386.324.09.179.142.386.142.568 0 .362-.19.598-.535.667-.232.304-.524.45-.881.45-.434 0-.649-.085-1.391-.548-.263-.166-.377-.207-.571-.207-.26 0-.455.162-.455.382 0 .198.162.328.523.426.22.057.247.073.361.187.09-.021.126-.03.183-.03.352 0 .79.19 1.16.508.673.21 1.269.933 1.269 1.542 0 .675-.58 1.28-1.233 1.28-.174 0-.527-.058-.844-.135"/>
        </g>
        <g fill="#FFF">
            <path d="M11.913 12.475c-.03-.13-.04-.198-.04-.264l.008-.085.032-.175.011-.138c0-.154-.024-.264-.077-.328l-.13-.175a.793.793 0 0 1-.108-.21.233.233 0 0 1-.021-.09c0-.053.028-.081.077-.081.029 0 .04.003.138.064a.254.254 0 0 0 .11.038c.064 0 .1-.106.1-.294 0-.21-.02-.328-.068-.377l-.162-.187-.142-.121c-.036-.03-.057-.065-.057-.094 0-.048.036-.081.09-.081.048 0 .15.024.239.057l.052.012c.044 0 .061-.03.061-.094l-.004-.04-.032-.232-.066-.24c-.02-.076-.032-.089-.08-.089l-.029.003-.272.053-.044.004c-.357 0-.734-.302-.852-.683l-.219-.706c-.064-.22-.227-.43-.523-.67-.09-.069-.162-.114-.215-.118l-.198-.024c-.037 0-.062-.023-.062-.053 0-.044.045-.064.138-.064l.362.032c.13.012.328.065.587.155.324.11.548.158.73.158.548 0 .873-.296.873-.788 0-.34-.175-.722-.447-.966-.154-.138-.304-.243-.36-.243-.03 0-.053.029-.053.06l.011.14v.01c0 .058-.032.098-.077.098-.053 0-.117-.074-.185-.22-.208-.43-.536-.685-.873-.685-.057 0-.101.023-.101.06 0 .021.02.078.057.16l.085.194a.35.35 0 0 1 .036.101c0 .012-.02.023-.044.023-.053 0-.13-.044-.187-.1l-.162-.18-.143-.219c-.113-.174-.206-.251-.45-.38a3.127 3.127 0 0 1-.259-.143.282.282 0 0 0-.138-.045c-.036 0-.057.02-.057.061 0 .033.017.073.04.118.082.121.115.187.115.215 0 .036-.025.07-.057.07-.085 0-.26-.175-.418-.407a1.132 1.132 0 0 1-.195-.613c0-.47.34-.816.807-.816.236 0 .54.098.82.272l.51.316c.18.11.442.196.597.196.068 0 .215-.024.32-.053a.487.487 0 0 0 .134-.056c.029-.018.048-.042.048-.062 0-.02-.011-.04-.028-.044l-.064-.024-.24-.045a1.158 1.158 0 0 1-.296-.11c-.287-.129-.47-.218-.543-.271a2.232 2.232 0 0 0-.361-.207c-.09-.03-.146-.07-.146-.102 0-.032.016-.049.048-.049a.23.23 0 0 1 .118.04c.159.103.3.156.406.156l.466.162c.236.08.572.154.726.154.199 0 .36-.162.36-.361 0-.13-.076-.321-.19-.48-.024-.036-.052-.056-.073-.056-.044 0-.068.033-.068.089l.011.085.017.13c0 .142-.098.256-.22.256a.538.538 0 0 1-.17-.037l-.71-.227c-.592-.19-.867-.252-1.164-.252-.851 0-1.496.585-1.496 1.352 0 .87.608 1.43 2.117 1.945 1.48.511 1.692.637 1.692 1.02 0 .218-.224.413-.47.413-.103 0-.188-.01-.265-.02l-.738-.175a5.47 5.47 0 0 0-1.359-.154c-1.07 0-1.666.186-2.177.686-.13.125-.17.145-.321.145l-.073-.003-.15-.008-.024-.003c-.126 0-.22.061-.304.198l-.187.297a.16.16 0 0 1-.126.065c-.098 0-.158-.077-.268-.341a.885.885 0 0 0-.227-.324l-.218-.2c-.038-.032-.057-.06-.057-.085 0-.02.015-.056.044-.097.105-.155.142-.223.154-.289.028-.141.033-.15.093-.15.066 0 .085.065.094.317 0 .073.028.171.085.297l.121.26c.013.036.053.056.098.056.113 0 .255-.267.296-.548.028-.235.053-.304.102-.304.02 0 .04.009.048.02.012.018.045.081.097.199a.457.457 0 0 0 .142.162.398.398 0 0 0 .134.078h.013c.088 0 .117-.057.137-.264l.012-.11-.025-.15-.011-.106c0-.073.024-.113.064-.113.025 0 .053.018.081.045l.11.109c.073.07.147.106.215.106.09 0 .147-.037.147-.094 0-.053-.021-.106-.102-.255l-.073-.143c-.09-.162-.159-.227-.24-.227l-.113.012-.13.052a.22.22 0 0 1-.085.024c-.02 0-.036-.02-.036-.045 0-.098.064-.251.186-.443.089-.138.146-.434.174-.86.037-.569.114-.937.195-.937.053 0 .073.044.073.166l-.004.15-.004.105c0 .102.02.183.049.183.093 0 .202-.138.291-.365a.692.692 0 0 0 .057-.224L7.2 3.64l-.22-.406-.218-.066c-.037-.011-.065-.029-.073-.047v-.268l-.024-.13-.044-.11-.053-.118c-.24.13-.353.211-.434.324-.09.115-.138.16-.179.16-.028 0-.053-.025-.053-.058 0-.029.013-.085.033-.179l.008-.06c0-.236-.142-.468-.377-.613l-.069.085-.077.11-.13.154a.669.669 0 0 0-.11.22.461.461 0 0 0-.02.121v.056c0 .094-.008.114-.048.114l-.03-.012-.076-.105-.117-.134L4.7 2.56l-.097-.077c-.02.044-.037.077-.044.097a.51.51 0 0 0-.053.175l-.013.174-.011.187v.033c0 .093-.021.134-.078.134a.367.367 0 0 1-.13-.056.304.304 0 0 0-.158-.046c-.17 0-.276.118-.276.3 0 .22.061.427.175.573l.138.187c.04.049.114.094.117.064l.025-.227-.032-.186-.004-.085c0-.069.023-.115.064-.115.061 0 .098.07.138.253l.085.405.09.511c.024.139.065.29.13.439.084.207.15.334.186.381.117.155.134.18.134.212 0 .03-.02.052-.045.052a.211.211 0 0 1-.101-.036.489.489 0 0 0-.13-.04l-.085-.012c-.175 0-.211.15-.211.877 0 .446.093 1.05.207 1.34l.231.58c.036.09.053.183.053.272 0 .795-1.055 2.046-2.215 2.622-.43.215-.568.419-.6.894l-.012.141c.178-.09.251-.117.373-.15.324-.085.389-.125.438-.284l.04-.142c.02-.053.045-.073.296-.207a.52.52 0 0 0 .175-.142c.057-.093.101-.142.13-.142.028 0 .04.011.04.036l-.007.04-.11.31-.013.076c0 .232.13.42.361.54.04-.25.07-.34.147-.458l.194-.304c.074-.114.106-.253.106-.468 0-.121-.013-.247-.028-.34l-.009-.09c0-.052.029-.085.077-.085.037 0 .069.012.073.033l.045.207c.008.045.053.077.106.077.104 0 .238-.138.385-.382a.585.585 0 0 0 .08-.287l-.016-.151-.032-.162-.004-.033c0-.073.04-.121.097-.121.024 0 .045.008.05.02l.064.252c.02.085.08.142.142.142.073 0 .198-.126.272-.272a.986.986 0 0 0 .096-.447c0-.236.025-.3.11-.3.029 0 .053.011.058.024l.04.141c.016.053.049.09.081.09.045 0 .166-.134.247-.273a.178.178 0 0 0 .032-.1c0-.05-.028-.094-.096-.151-.114-.098-.123-.11-.123-.252 0-.138.025-.21.123-.381.052-.094.1-.183.141-.264.138-.268.187-.337.24-.337.04 0 .077.045.077.093 0 .03-.009.061-.021.09a.348.348 0 0 0-.045.129c0 .045.038.082.082.082a.447.447 0 0 0 .19-.065c.028-.021.13-.06.305-.122l.36-.13a.601.601 0 0 1 .22-.032.71.71 0 0 1 .194.02c.13.03.215.045.251.045a.188.188 0 0 0 .187-.183c0-.072-.072-.215-.174-.332-.036-.04-.057-.077-.057-.098L8.18 7.3c.017-.024.037-.045.061-.045.073 0 .243.187.397.426.942 1.482 1.278 1.843 1.91 2.034.641.194.813.345.813.726 0 .208-.11.451-.342.78-.475.666-.592.934-.592 1.373v.08a1.01 1.01 0 0 0 .122-.057.794.794 0 0 1 .174-.072l.272-.057c.081-.018.154-.122.154-.224v-.029l-.032-.24-.005-.032c0-.085.045-.183.102-.228a.072.072 0 0 1 .057-.023c.032 0 .069.03.085.065l.175.373c.073.15.154.223.38.325M3.115 4.559c-.077 0-.117.069-.125.22l-.025.206c-.024.194-.024.215-.024.264 0 .155.045.272.109.272.07 0 .178-.134.231-.284a.775.775 0 0 0 .05-.256.75.75 0 0 0-.05-.247c-.036-.11-.101-.175-.166-.175"/>
            <path d="m2.113 2.854.004.097c0 .134-.032.296-.145.715a.815.815 0 0 0-.033.195.48.48 0 0 0 .09.251c.036.057.069.094.097.106l.13.069.025.155a.615.615 0 0 0 .032.239c.028.106.044.215.044.325 0 .092-.008.13-.028.13-.041 0-.114-.115-.182-.28-.106-.265-.2-.362-.345-.362-.122 0-.2.017-.34.085.031.044.055.074.064.09.008.01.04.076.097.186l.154.292c.106.207.166.321.187.35.04.065.09.117.15.154l.174.097c.053.03.09.074.09.102 0 .049-.037.085-.093.085H2.28l-.143-.02-.08-.012c-.041 0-.062.04-.062.121 0 .297.236.637.64.938.054.036.09.09.09.118 0 .037-.036.069-.081.069a.457.457 0 0 1-.138-.045.148.148 0 0 0-.077-.024c-.053 0-.09.045-.09.115 0 .077.066.23.2.486.09.171.222.297.373.362l.491.206a.071.071 0 0 1 .045.066c0 .04-.03.073-.07.077l-.098.011-.085.013-.14-.013H3.03c-.064 0-.093.013-.093.05 0 .052.061.19.163.352.113.199.215.31.279.31.025 0 .053-.022.07-.058l.117-.252c.02-.04.117-.117.283-.215a.871.871 0 0 1 .305-.121l.199-.032c.052-.01.077-.045.077-.106v-.023L4.398 8.1l-.025-.23-.021-.209-.024-.239c0-.061-.017-.09-.053-.09-.024 0-.068.037-.097.078-.17.264-.292.349-.475.349-.58 0-1.022-1.023-1.022-2.379 0-.117.009-.268.025-.447.028-.348.032-.434.032-.564 0-.588-.121-1.002-.373-1.25l-.154-.154-.098-.11M3.521 10.84a1.368 1.368 0 0 1-.316-.078c-.025-.009-.094-.041-.207-.085a1.032 1.032 0 0 0-.418-.11c-.162 0-.296.053-.454.183l.097.077.22.155.206.162a.279.279 0 0 0 .183.064c.21 0 .396-.097.69-.369M7.723 12.829a.606.606 0 0 1 .218-.285c.305-.264.447-.459.447-.612v-.24c0-.143.025-.188.097-.188.033 0 .058.013.069.034l.053.13c.012.032.049.052.093.052.04 0 .102-.052.158-.13l.11-.15a.369.369 0 0 0 .077-.215.34.34 0 0 0-.025-.126l-.073-.174a.452.452 0 0 1-.044-.172c0-.069.032-.113.097-.113.033 0 .06.011.077.036l.085.106a.12.12 0 0 0 .086.04c.036 0 .085-.04.114-.093l.085-.174a.248.248 0 0 0 .036-.098c0-.036-.036-.069-.101-.098l-.143-.068c-.186-.086-.328-.386-.328-.699a.3.3 0 0 1 .024-.117l.078-.187a.506.506 0 0 0 .032-.175.622.622 0 0 0-.11-.34 2.098 2.098 0 0 1-.141-.228c-.066-.175-.098-.22-.15-.22l-.057.013-.078.044-.121.065-.142.175-.15.073c-.093.048-.179.244-.179.401 0 .285.033.366.406 1.012.146.247.223.462.223.621 0 .45-.401.767-1.205.963l-.502.117c-.37.09-.588.345-.666.775.155-.077.215-.09.483-.09l.162.004h.025c.146 0 .166-.011.26-.142a.806.806 0 0 1 .36-.305l.175-.077.141-.077.04-.012c.041 0 .062.018.062.046 0 .044-.04.113-.102.186a.572.572 0 0 0-.174.423c0 .105.025.166.118.287"/>
            <path d="M6.348 11.131c.125.081.25.196.329.297.105.142.117.154.223.154.04 0 .097-.009.158-.023l.097-.021c.178-.032.243-.06.243-.105 0-.024-.02-.062-.057-.09l-.121-.11-.118-.109a.579.579 0 0 0-.36-.121c-.13 0-.208.023-.394.13M9.885 11.724l.064-.012.098-.011.098.011.047.003c.244 0 .48-.206.48-.422 0-.077-.074-.118-.195-.118-.292 0-.479.17-.592.549M32.273 12.475a.805.805 0 0 1-.032-.198l.011-.151c.025-.203.038-.3.038-.422a.334.334 0 0 0-.082-.22l-.13-.174c-.085-.117-.122-.203-.122-.3 0-.062.017-.085.062-.085l.048.012c.009.002.037.02.097.056a.254.254 0 0 0 .11.037c.064 0 .098-.101.098-.31 0-.283-.053-.417-.22-.547l-.15-.121a.116.116 0 0 1-.045-.09c0-.053.033-.085.081-.085.03 0 .074.01.126.024l.123.032.044.01c.037 0 .056-.03.056-.094l-.004-.036-.032-.232c-.032-.236-.073-.33-.142-.33l-.02.003-.285.053-.047.004c-.342 0-.743-.322-.849-.682l-.206-.707c-.061-.215-.247-.447-.524-.67a.566.566 0 0 0-.231-.118l-.194-.024c-.037 0-.061-.022-.061-.052 0-.045.04-.065.121-.065.276 0 .572.057.966.187.357.113.555.158.73.158.544 0 .872-.284.872-.754 0-.24-.085-.537-.207-.728a1.75 1.75 0 0 0-.51-.48c-.038-.022-.066-.035-.09-.035-.03 0-.053.03-.053.057l.008.142.004.012c0 .053-.032.097-.072.097-.061 0-.123-.07-.191-.22-.203-.425-.528-.68-.86-.68-.073 0-.114.022-.114.068 0 .032.02.085.057.146.032.052.07.118.098.195.015.04.028.072.028.093 0 .02-.021.032-.053.032-.05 0-.13-.044-.182-.101a3.83 3.83 0 0 1-.163-.178l-.141-.22a1.074 1.074 0 0 0-.438-.38l-.273-.143a.341.341 0 0 0-.142-.045c-.032 0-.049.02-.049.053 0 .032.017.077.05.126a.584.584 0 0 1 .101.215c0 .036-.025.069-.057.069-.077 0-.21-.139-.405-.407a1.032 1.032 0 0 1-.208-.613c0-.458.353-.816.808-.816.235 0 .528.098.82.272l.523.317c.185.114.44.195.596.195.089 0 .113-.003.308-.053.056-.018.105-.032.141-.057a.07.07 0 0 0 .042-.06c0-.045-.025-.066-.094-.07-.244-.018-.75-.214-1.083-.426a2.908 2.908 0 0 0-.357-.207c-.093-.032-.15-.077-.15-.118 0-.012.016-.024.044-.024l.066.012.474.174.458.164c.227.08.576.153.734.153a.332.332 0 0 0 .349-.349.674.674 0 0 0-.069-.304c-.065-.13-.154-.243-.186-.243-.045 0-.069.044-.069.117l.004.057.016.143c0 .145-.081.243-.207.243a.544.544 0 0 1-.178-.037l-.71-.227c-.616-.199-.856-.252-1.156-.252-.86 0-1.505.58-1.505 1.352 0 .87.596 1.417 2.126 1.945 1.489.515 1.683.637 1.683 1.027 0 .227-.211.406-.475.406-.097 0-.187-.01-.26-.02-.06-.018-.308-.074-.738-.175a5.207 5.207 0 0 0-1.358-.155c-1.083 0-1.602.162-2.17.686-.13.121-.183.146-.329.146l-.073-.003-.17-.011c-.134 0-.231.064-.308.198l-.175.296a.145.145 0 0 1-.125.066c-.114 0-.175-.078-.28-.341a.818.818 0 0 0-.219-.325l-.227-.199c-.036-.03-.057-.057-.057-.082 0-.02.02-.056.057-.1.032-.045.064-.098.097-.156a.355.355 0 0 0 .052-.134l.013-.096c.008-.034.04-.053.077-.053.073 0 .085.049.089.317 0 .068.028.17.085.296l.122.26c.012.036.053.056.097.056.113 0 .256-.267.296-.548.028-.232.053-.304.102-.304.045 0 .064.023.158.219a.535.535 0 0 0 .13.162.32.32 0 0 0 .133.078h.009c.093 0 .121-.057.142-.264l.011-.11-.02-.15-.016-.106c0-.073.025-.113.065-.113.024 0 .053.018.081.045l.11.109c.073.068.146.11.219.11.093 0 .15-.045.15-.11 0-.057-.012-.081-.11-.244-.008-.012-.032-.06-.077-.142-.093-.183-.138-.228-.223-.228l-.113.013-.142.052a.258.258 0 0 1-.086.024c-.02 0-.036-.021-.036-.045 0-.098.066-.251.187-.443.077-.117.138-.413.186-.86l.053-.511c.036-.317.07-.427.134-.427.025 0 .04.009.04.021l.037.167v.13c0 .157.016.287.037.287.044 0 .113-.053.178-.146a.702.702 0 0 0 .11-.22 1 1 0 0 0 .057-.283c0-.252-.106-.362-.45-.46-.033-.008-.058-.02-.066-.032l-.012-.097V2.85l-.02-.13-.045-.11-.052-.117-.086.053c-.222.137-.28.182-.352.271-.098.126-.134.16-.175.16-.029 0-.053-.022-.053-.05l.045-.187v-.029c0-.24-.134-.47-.374-.645l-.077.084-.076.11-.13.154a.51.51 0 0 0-.122.321l.004.036v.037c0 .09-.012.118-.053.118l-.023-.012-.09-.105-.11-.134-.194-.118-.098-.078c-.105.228-.11.252-.11.55v.089c0 .096-.032.158-.085.158a.322.322 0 0 1-.134-.053.314.314 0 0 0-.162-.045c-.157 0-.275.134-.275.321 0 .198.045.337.178.552.085.141.195.26.248.26.008 0 .02-.102.032-.236l-.032-.186-.008-.086c0-.07.028-.114.068-.114.061 0 .098.07.138.252l.085.406.09.511c.025.139.068.288.13.439.085.207.15.332.186.381.122.155.134.18.134.211 0 .03-.02.053-.049.053a.214.214 0 0 1-.097-.036.489.489 0 0 0-.13-.04l-.08-.013c-.18 0-.216.146-.216.869 0 .455.094 1.056.207 1.348l.231.58c.037.09.052.183.052.272 0 .8-1.079 2.074-2.213 2.623-.443.211-.573.434-.613 1.035.19-.09.268-.118.385-.15.32-.094.39-.139.434-.284l.045-.143c.02-.061.06-.093.283-.206a.46.46 0 0 0 .175-.143c.057-.093.101-.141.13-.141.032 0 .048.02.048.056l-.004.02-.121.31-.013.076c0 .228.13.42.362.54l.036-.13c.036-.165.073-.276.106-.329l.21-.304c.073-.11.09-.182.09-.467l-.017-.34-.004-.09c0-.057.025-.085.077-.085.037 0 .07.012.07.032l.032.208c.008.045.053.077.11.077.105 0 .239-.134.38-.382a.504.504 0 0 0 .082-.264c0-.07-.017-.219-.037-.336l-.004-.066c0-.053.033-.09.085-.09.024 0 .05.01.053.022l.073.251c.028.085.085.142.145.142.168 0 .342-.341.358-.71.012-.228.04-.31.11-.31.028 0 .048.01.056.025l.04.141c.017.053.05.09.078.09.028 0 .085-.048.154-.13a1.44 1.44 0 0 0 .097-.142.267.267 0 0 0 .033-.118c0-.052-.013-.069-.098-.134a.278.278 0 0 1-.121-.231c0-.158.07-.33.263-.666.179-.305.203-.341.243-.341.045 0 .074.04.074.093a.24.24 0 0 1-.02.094.349.349 0 0 0-.045.134c0 .04.036.077.085.077a.485.485 0 0 0 .199-.064c.045-.03.145-.07.292-.122.202-.074.328-.119.373-.13a.675.675 0 0 1 .223-.037c.065 0 .125.009.19.024.126.029.212.044.252.044a.173.173 0 0 0 .175-.174.46.46 0 0 0-.066-.187 1.497 1.497 0 0 0-.1-.154c-.045-.05-.066-.077-.066-.098l.012-.045c.012-.024.037-.044.06-.044.086 0 .257.178.41.426.856 1.4 1.27 1.842 1.899 2.034.653.198.807.336.807.726 0 .208-.11.46-.337.78-.438.604-.592.962-.592 1.364v.09c.053-.024.094-.041.122-.058a.794.794 0 0 1 .174-.072l.272-.058c.085-.017.154-.117.154-.227v-.024l-.024-.24v-.035c0-.139.064-.249.145-.249.034 0 .07.03.086.066l.174.373c.074.15.155.223.382.325M23.326 4.985l-.012.175v.106c0 .177.028.255.093.255.073 0 .187-.138.236-.284.032-.094.056-.224.056-.297a.5.5 0 0 0-.056-.206c-.05-.119-.098-.175-.16-.175-.093 0-.136.122-.157.426"/>
            <path d="m22.475 2.854.004.097c0 .098-.033.285-.078.463-.045.155-.065.236-.069.251-.012.062-.02.13-.02.196 0 .154.073.3.186.357l.118.069.025.155a.736.736 0 0 0 .032.239c.028.11.045.219.045.33 0 .087-.009.125-.028.125-.041 0-.115-.115-.18-.28-.11-.265-.202-.362-.348-.362a.686.686 0 0 0-.34.085c.113.15.182.272.316.568.175.39.239.467.511.6.06.033.1.07.1.103 0 .053-.04.085-.096.085-.025 0-.097-.01-.155-.02l-.08-.01c-.041 0-.06.037-.06.122 0 .293.246.642.651.934.057.04.09.08.09.11 0 .02-.012.036-.037.052a.073.073 0 0 1-.056.024.487.487 0 0 1-.126-.045.173.173 0 0 0-.081-.024c-.052 0-.086.05-.086.126 0 .102.074.276.2.475.117.187.243.313.36.362l.491.206c.025.013.045.037.045.066 0 .036-.028.068-.069.077l-.085.011-.097.013-.134-.013h-.021c-.069 0-.094.013-.094.049 0 .053.05.162.16.353.12.211.206.31.271.31.024 0 .048-.022.069-.058l.117-.252c.017-.032.114-.106.285-.215a.71.71 0 0 1 .304-.121c.264-.033.287-.05.287-.155 0-.04-.012-.113-.036-.215-.008-.056-.02-.134-.032-.231l-.02-.208-.026-.239c0-.061-.015-.09-.052-.09-.025 0-.06.033-.085.078-.13.212-.32.349-.47.349-.613 0-1.027-.97-1.027-2.399l.008-.427.037-.515.004-.182c0-.439-.154-.894-.377-1.118l-.15-.153-.101-.11M23.881 10.84a1.671 1.671 0 0 1-.523-.163c-.178-.082-.292-.114-.409-.114-.17 0-.304.057-.463.187l.098.077.219.155.206.162a.282.282 0 0 0 .187.064c.211 0 .394-.097.685-.369M28.084 12.829a.608.608 0 0 1 .219-.285c.304-.264.446-.459.446-.612v-.24c0-.143.024-.188.097-.188.032 0 .06.013.07.034l.051.13c.013.032.049.047.094.047.076 0 .134-.056.267-.275.058-.093.081-.155.081-.215a.364.364 0 0 0-.028-.126 3.996 3.996 0 0 0-.076-.174.518.518 0 0 1-.045-.172c0-.069.036-.113.1-.113.03 0 .062.011.079.036l.085.106c.02.023.024.04.056.04.04 0 .114-.04.142-.093l.085-.174a.21.21 0 0 0 .032-.102c0-.032-.032-.073-.085-.094l-.153-.068c-.18-.077-.329-.382-.329-.678 0-.03.012-.078.033-.138l.068-.187a.566.566 0 0 0 .032-.183.659.659 0 0 0-.109-.333 2.594 2.594 0 0 1-.134-.227c-.06-.163-.097-.216-.153-.216-.038 0-.074.012-.138.053l-.11.065-.154.175-.15.073c-.094.048-.18.248-.18.41 0 .236.05.366.407 1.003.15.268.223.466.223.621 0 .442-.455.812-1.193.961-.884.18-1.079.326-1.18.894.154-.078.215-.09.483-.09l.162.004h.024c.146 0 .167-.012.26-.142a.795.795 0 0 1 .357-.305l.178-.077.138-.077.045-.012c.04 0 .06.018.06.045 0 .04-.032.101-.105.187-.101.125-.161.26-.161.357 0 .146.02.224.109.353"/>
            <path d="M26.709 11.131c.125.081.251.196.328.297.106.142.117.154.223.154.04 0 .098-.009.158-.023l.098-.021c.186-.037.243-.06.243-.114 0-.03-.016-.057-.045-.08l-.134-.11-.117-.11a.568.568 0 0 0-.345-.123c-.138 0-.247.037-.41.13M30.245 11.724l.065-.012.11-.011.089.011.057.003c.11 0 .166-.011.215-.048.064-.05.133-.134.207-.248a.283.283 0 0 0 .044-.126c0-.073-.07-.118-.19-.118-.3 0-.484.166-.597.549M10.854 34.8l.065-.13.154-.163a.82.82 0 0 0 .198-.569c0-.109-.02-.23-.056-.348a.871.871 0 0 1-.044-.195c0-.069.052-.134.104-.134.021 0 .053.02.082.053l.162.186c.101.114.138.138.264.163l.012-.15.008-.18a1.26 1.26 0 0 0-.239-.739c-.085-.113-.126-.178-.126-.219 0-.04.028-.077.06-.077.009 0 .026.01.045.024.106.077.16.11.187.11.053 0 .102-.13.102-.276 0-.208-.09-.447-.223-.613a2.06 2.06 0 0 1-.13-.162.1.1 0 0 1-.025-.062c0-.049.04-.08.098-.08.04 0 .064.01.134.055a.17.17 0 0 0 .08.034c.086 0 .118-.123.118-.447l-.004-.134-.012-.195c-.012-.231-.033-.272-.13-.272h-.085c-.531 0-.783-.34-.916-1.246-.102-.658-.345-1.125-.645-1.226-.179-.058-.244-.098-.244-.147 0-.03.049-.06.106-.06.036 0 .13.023.202.056.438.175.804.264 1.124.264.523 0 .933-.386.933-.876 0-.374-.179-.752-.495-1.06a.63.63 0 0 0-.276-.162l-.016-.004-.057.021.02.158.045.11.012.045c0 .023-.024.04-.052.04a.112.112 0 0 1-.082-.04l-.194-.296c-.154-.232-.5-.431-.751-.431-.09 0-.146.041-.146.106 0 .032.029.085.069.125.053.065.098.143.098.175l-.013.045c-.011.023-.028.04-.044.044h-.012c-.053 0-.078-.023-.312-.292-.196-.223-.592-.438-.808-.438a.114.114 0 0 0-.077.032c-.016.012-.024.03-.024.04 0 .034.028.078.077.123.068.064.121.137.121.166 0 .023-.028.045-.06.045-.065 0-.203-.094-.463-.296-.409-.321-.592-.622-.592-.975 0-.422.304-.755.69-.755.223 0 .523.11.73.264l.535.406c.243.183.543.285.856.285a.45.45 0 0 0 .191-.045c.048-.024.077-.053.077-.074 0-.018-.04-.032-.098-.048a1.237 1.237 0 0 1-.458-.195l-.548-.414a3.462 3.462 0 0 0-.426-.296c-.287-.15-.344-.187-.344-.22 0-.017.028-.031.065-.031.028 0 .06.008.092.022l.285.119c.093.04.247.13.462.271.58.394.88.52 1.221.52.328 0 .568-.235.568-.548a.442.442 0 0 0-.045-.187l-.057-.11c-.015-.04-.053-.069-.064-.056l-.033.044-.033.232a.428.428 0 0 1-.109.182c-.057.061-.11.078-.199.078-.17 0-.36-.09-.872-.415-.515-.328-.981-.503-1.35-.503-.787 0-1.42.633-1.42 1.417 0 1.096.67 1.587 2.763 2.046.794.175 1.143.405 1.143.759 0 .325-.26.528-.673.528-.126 0-.223-.003-.296-.021-.07-.011-.446-.117-1.123-.305a5.685 5.685 0 0 0-1.457-.206c-.823 0-1.375.247-1.752.77-.044.066-.089.103-.118.103-.02 0-.052-.018-.088-.045l-.155-.122a.746.746 0 0 0-.39-.146.343.343 0 0 0-.231.093c-.056.05-.097.077-.113.077-.061 0-.17-.138-.26-.316a1.764 1.764 0 0 1-.187-.743c0-.11.038-.187.086-.187.037 0 .065.03.082.09l.085.317c.047.174.15.315.222.315.037 0 .093-.047.163-.134.04-.047.068-.1.085-.15.069-.202.085-.231.138-.231.065 0 .097.04.141.24.009.036.021.094.07.187.045.084.09.15.13.199.036.036.077.057.113.057.097 0 .187-.163.187-.338l-.004-.048-.013-.203c0-.077.013-.102.057-.102.024 0 .045.012.077.053a.558.558 0 0 0 .183.155.437.437 0 0 0 .158.052c.032 0 .07-.02.106-.052.028-.03.044-.062.044-.09 0-.03-.036-.08-.154-.195-.06-.065-.139-.215-.22-.439-.028-.085-.068-.141-.1-.141a.403.403 0 0 0-.074.023l-.141.053-.098.044-.036.01c-.049 0-.085-.032-.085-.078 0-.04.1-.158.219-.26a.39.39 0 0 0 .141-.296c.008-.183.04-.324.078-.324l.032-.382a3.63 3.63 0 0 1 .166-.755c.013-.04.028-.065.04-.065.033 0 .058.081.058.17v.057l-.009.11c0 .142.024.21.065.21.049 0 .102-.068.15-.19l.098-.248a.621.621 0 0 0 .044-.207c0-.212-.13-.365-.304-.365l-.077.011a.308.308 0 0 1-.077.024c-.06 0-.11-.064-.11-.138l.012-.158-.011-.22-.045-.227-.012-.11-.098.053-.117.102-.175.142-.142.117a.132.132 0 0 1-.081.033c-.085 0-.098-.02-.098-.19l.005-.045c0-.134-.06-.244-.284-.508-.012-.012-.032-.037-.057-.065l-.04.077-.122.195-.121.308-.021.195c-.009.058-.028.102-.052.102-.02 0-.057-.03-.102-.078-.166-.19-.219-.227-.466-.316l-.025.077c-.036.126-.06.203-.064.228l-.013.207v.158c0 .057-.02.093-.057.093h-.008c-.004 0-.024-.02-.065-.057a.222.222 0 0 0-.13-.032c-.206 0-.336.11-.336.285 0 .13.049.227.247.535.09.138.191.244.236.244.024 0 .048-.074.048-.158l-.02-.13a.537.537 0 0 1-.032-.167c0-.06.02-.093.052-.093.097 0 .2.284.24.678l.044.402c.016.146.06.292.13.438.1.203.198.342.288.402.101.073.166.146.166.187 0 .036-.028.065-.056.065a3.21 3.21 0 0 1-.224-.078l-.089-.011c-.219 0-.292.126-.292.499 0 .455.305 1.109.645 1.381l.503.405c.255.203.446.545.446.788 0 .317-.349.633-.949.848l-.361.134c-.28.102-.39.28-.503.809a.9.9 0 0 1 .305-.057h.048l.162.003c.146 0 .252-.085.252-.211v-.098c0-.03.04-.07.097-.098.097-.048.15-.072.154-.076l.117-.098a.09.09 0 0 1 .061-.024c.037 0 .062.029.062.065a.33.33 0 0 1-.021.101c-.04.098-.061.228-.061.374 0 .267.044.414.178.61a.828.828 0 0 1 .033-.143c.024-.057.086-.155.186-.296.166-.232.289-.512.289-.662l-.004-.05-.033-.25c0-.045.02-.086.053-.118a.126.126 0 0 1 .076-.032c.045 0 .074.029.11.109.024.061.057.098.077.098.04 0 .113-.102.162-.22a.622.622 0 0 0 .057-.231.41.41 0 0 0-.032-.139.338.338 0 0 1-.036-.125c0-.03.007-.04.043-.073.021-.012.038-.021.058-.021.02 0 .044.01.065.02l.097.066a.18.18 0 0 0 .085.037c.044 0 .11-.05.154-.122.098-.146.154-.268.154-.313 0-.029-.016-.049-.077-.093-.219-.15-.361-.386-.361-.581 0-.048.012-.101.033-.162l.11-.292c.056-.15.084-.228.088-.232l.033-.012c.037 0 .057.033.057.086a.42.42 0 0 1-.024.125.615.615 0 0 0-.045.207c0 .077.04.119.113.119a.475.475 0 0 0 .183-.042c.328-.141.592-.218.746-.218.15 0 .244.032.397.141.04.03.077.045.102.045.02 0 .045-.018.064-.045a.12.12 0 0 0 .021-.057c0-.036-.025-.088-.065-.137-.056-.073-.077-.114-.077-.16 0-.031.02-.051.061-.051.17 0 .438.54.694 1.4.198.678.255.743.904 1.113.547.307.754.616.754 1.116 0 .49-.133 1.116-.417 1.94-.09.264-.126.439-.126.584 0 .115.02.228.106.52.04.142.064.224.077.253a1.3 1.3 0 0 0 .085.162"/>
            <path d="M8.323 33.273c.065-.15.086-.187.207-.374.179-.268.239-.405.239-.535v-.175c0-.163.033-.24.098-.24.024 0 .044.013.057.032l.056.09c.016.03.044.044.078.044.032 0 .089-.044.121-.092a.78.78 0 0 0 .126-.39l-.013-.118-.008-.126c0-.065.029-.094.09-.094.04 0 .06.018.097.098.025.053.053.09.08.09.029 0 .066-.03.094-.07l.085-.13.066-.097.015-.053c0-.032-.02-.061-.08-.102-.203-.145-.288-.369-.305-.775-.012-.309-.028-.507-.057-.6a7.868 7.868 0 0 0-.194-.471 2.594 2.594 0 0 1-.13-.39c-.028-.102-.061-.134-.138-.134-.296 0-.52.255-.52.588 0 .2.082.508.232.89.211.528.264.718.264.905 0 .402-.159.577-.714.775-.624.224-.917.544-1.022 1.125.049-.021.085-.033.105-.045.074-.03.121-.045.155-.053l.174-.045c.15-.036.271-.121.296-.207l.045-.154a.104.104 0 0 1 .064-.077l.098-.04.097-.046.024.045-.045.138a.949.949 0 0 0-.023.256c0 .24.048.381.186.556M2.462 23.168a.604.604 0 0 1 .025.122c0 .036-.016.13-.045.285l-.02.223c0 .19.036.401.097.572.057.159.069.207.069.251l-.004.046c-.009.045-.028.077-.04.077-.02 0-.061-.024-.114-.07a.594.594 0 0 0-.402-.162c-.044 0-.109.01-.187.02l.057.122.162.407.228.349.244.162c.02.018.043.036.064.066.02.032.032.056.032.072 0 .021-.02.037-.044.037l-.22.011c-.032 0-.055.02-.055.045 0 .037.028.146.089.325l.109.317.187.175.194.141c.061.042.093.09.093.126 0 .03-.015.057-.036.061l-.109.012c-.037.003-.057.033-.057.085 0 .082.077.231.219.427.17.23.288.304.483.304h.162c.077 0 .125.04.125.101 0 .053-.032.081-.106.098-.149.032-.194.061-.194.13 0 .029.02.073.057.121l.086.118c.072.102.153.166.206.166.028 0 .098-.029.158-.1a.722.722 0 0 1 .353-.24c.381-.094.458-.135.458-.224a.28.28 0 0 0-.04-.126c-.122-.215-.167-.356-.167-.535 0-.134-.032-.228-.085-.228-.02 0-.053.032-.09.085a.482.482 0 0 1-.38.232c-.377 0-.832-.59-1.06-1.377a2.198 2.198 0 0 1-.08-.588c0-.207.029-.435.08-.67l.123-.531.012-.151c0-.272-.247-.618-.637-.889"/>
            <path d="M3.25 24.687c-.082.154-.154.495-.154.71 0 .13.043.227.096.227.017 0 .04-.02.057-.052l.122-.22c.02-.036.04-.072.077-.133.044-.066.077-.126.077-.162 0-.126-.122-.29-.276-.37M4.45 29.61c.024.03.044.045.057.058.044.045.072.077.085.085.215.224.243.243.349.243.093 0 .291-.052.405-.109.044-.024.073-.053.073-.077 0-.012-.036-.057-.106-.121l-.121-.11c-.09-.082-.227-.158-.288-.158-.125 0-.255.057-.454.19M6.98 31.588c.118.048.159.069.22.11.097.065.154.101.174.11a.417.417 0 0 0 .175.023.361.361 0 0 0 .13-.023l.23-.086.22-.077c.056-.02.097-.052.097-.086 0-.017-.049-.04-.122-.056a1.296 1.296 0 0 1-.163-.057c-.266-.105-.307-.122-.4-.122a.742.742 0 0 0-.56.264M9.743 33.784c.073-.174.121-.202.368-.219.28-.018.549-.515.549-.856 0-.032-.013-.062-.025-.062-.016 0-.04.013-.073.033a2.175 2.175 0 0 1-.166.102l-.317.142c-.21.092-.393.373-.393.596 0 .073.012.139.057.264M29.633 31.174l.044-.118.045-.155a.865.865 0 0 1 .117-.186.884.884 0 0 0 .166-.544.431.431 0 0 0-.056-.207.284.284 0 0 1-.032-.106.09.09 0 0 1 .02-.048c.017-.02.032-.033.045-.033l.008-.002c.028 0 .077.032.113.077.045.057.085.09.11.09.049 0 .102-.082.13-.209a.65.65 0 0 0 .02-.109.943.943 0 0 0-.097-.304.283.283 0 0 1-.033-.114c0-.036.029-.07.061-.07s.085.034.146.094c.029.03.06.045.081.045.069 0 .118-.069.17-.239.033-.106.045-.155.045-.17 0-.033-.016-.053-.04-.053l-.036.003-.13.011c-.2 0-.479-.138-.613-.296l-.304-.37c-.117-.146-.285-.36-.272-.36l-.251-.163c-.045-.03-.07-.065-.07-.093 0-.04.045-.066.106-.066.057 0 .236.061.564.2.312.134.807.243 1.102.243a.948.948 0 0 0 .954-.933c0-.285-.126-.545-.434-.906-.056-.065-.154-.13-.199-.13-.036 0-.06.023-.06.06a.36.36 0 0 0 .032.127c.012.033.02.07.02.101 0 .05-.016.077-.052.077-.07 0-.138-.113-.2-.307-.068-.245-.21-.39-.542-.56-.126-.062-.293-.123-.345-.123-.025 0-.036.02-.036.049 0 .04.015.085.043.13a.587.587 0 0 1 .086.207v.012c0 .04-.02.064-.06.064-.07 0-.086-.017-.244-.264-.082-.125-.304-.292-.49-.369a.492.492 0 0 0-.188-.044h-.008c-.036 0-.069.017-.069.04 0 .012.016.045.05.102l.015.06c0 .033-.02.062-.05.062-.068 0-.27-.167-.429-.35-.174-.202-.283-.454-.283-.657 0-.414.397-.788.843-.788.114 0 .207.02.28.057l.381.194.447.298c.26.17.612.296.827.296.077 0 .138-.013.34-.07.11-.029.175-.068.175-.109l-.004-.008-.036-.024-.244-.021c-.13-.011-.434-.15-.673-.304l-.503-.329-.446-.187c-.037-.011-.057-.036-.057-.057 0-.02.025-.04.048-.04.005 0 .045.009.126.02l.418.122c.101.029.267.105.499.231.458.24.75.349.97.349.251 0 .437-.175.437-.41 0-.077-.016-.207-.045-.313a.386.386 0 0 0-.064-.141c-.017-.03-.04-.046-.053-.046-.032 0-.049.038-.049.09l.004.078.004.06c0 .204-.076.272-.3.272-.182 0-.425-.068-.98-.292-.52-.204-.845-.285-1.169-.285-.82 0-1.542.675-1.542 1.438 0 .662.438 1.165 1.335 1.535l.929.385c.766.312 1.046.54 1.046.836 0 .251-.227.41-.587.41-.16 0-.353-.044-.71-.158-.869-.276-1.432-.39-1.927-.39-.812 0-1.387.22-1.85.706-.06.066-.093.086-.15.086-.036 0-.073-.012-.154-.06a.54.54 0 0 0-.239-.083c-.081 0-.202.07-.264.147l-.11.142c-.032.04-.064.065-.092.065-.081 0-.22-.135-.309-.297a.877.877 0 0 1-.11-.28 2.006 2.006 0 0 1-.024-.3l.012-.203.033-.22c.016-.106.028-.166.032-.187.009-.022.033-.04.053-.04.056 0 .081.049.081.17v.07l-.004.048c0 .308.122.593.26.593.105 0 .198-.187.279-.568.012-.073.045-.119.081-.119.045 0 .07.053.102.22.02.105.089.251.166.349.04.057.085.085.121.085.09 0 .15-.134.196-.447.015-.122.053-.199.093-.199.02 0 .036.012.045.024a.61.61 0 0 1 .076.122.274.274 0 0 0 .122.105.253.253 0 0 0 .126.045.152.152 0 0 0 .101-.045c.05-.04.077-.073.077-.09s-.024-.047-.064-.092a1.088 1.088 0 0 1-.195-.362c-.045-.121-.081-.202-.098-.251-.02-.04-.036-.065-.056-.077l-.033-.01-.065.01c-.012.002-.089.03-.231.064l-.069.012c-.032 0-.053-.02-.053-.052 0-.03.04-.082.09-.122.276-.219.442-.589.502-1.124.038-.325.078-.451.22-.647.028-.04.052-.064.069-.064.04 0 .064.032.064.098a.42.42 0 0 1-.036.153.354.354 0 0 0-.024.135l.004.041.02.065.121-.045.13-.15a.824.824 0 0 0 .142-.447.348.348 0 0 0-.089-.252c-.068-.084-.113-.118-.162-.118l-.077.01-.078.002c-.068 0-.104-.02-.104-.065l.02-.08.012-.122-.069-.273-.053-.134-.032-.105-.078.052-.162.098a.676.676 0 0 0-.134.122c-.153.187-.162.195-.227.195-.036 0-.06-.013-.06-.04l.004-.046c.024-.101.036-.178.036-.227 0-.191-.138-.479-.308-.638-.228.22-.35.46-.35.69v.13c0 .053-.015.078-.048.078h-.004c-.028-.003-.056-.024-.077-.057l-.13-.175c-.011-.011-.068-.057-.174-.142a1.278 1.278 0 0 1-.09-.073l-.044.085c-.11.215-.145.345-.154.524-.004.146-.016.19-.049.19-.016 0-.04-.011-.068-.023-.167-.093-.183-.101-.252-.101-.199 0-.333.142-.333.349 0 .077.045.202.138.361.098.18.248.341.313.341.02 0 .024-.011.024-.065v-.023l-.012-.187-.02-.142v-.018c0-.045.016-.06.048-.06.098 0 .183.287.256.864.064.507.207.857.426 1.06.057.052.089.093.089.118 0 .02-.02.036-.045.036a.333.333 0 0 1-.142-.057.228.228 0 0 0-.117-.032c-.11 0-.232.126-.256.264l-.097.62-.077.873c-.013.166.008.39.068.658.05.236.074.406.074.515 0 .654-.406 1.174-1.079 1.372l-.697.208c-.439.13-.65.418-.71.95.114-.09.146-.102.316-.13l.207-.032a.577.577 0 0 0 .187-.057.942.942 0 0 0 .121-.118l.183-.207c.072-.082.134-.126.174-.126.024 0 .045.032.045.065 0 .04-.025.101-.077.178a.554.554 0 0 0-.078.285c0 .138.036.227.175.426.02-.065.036-.11.044-.13a2.05 2.05 0 0 1 .166-.228c.15-.198.26-.4.26-.494.004-.167.017-.224.061-.224.036 0 .045.008.061.105a.144.144 0 0 0 .033.066c.023.029.048.044.064.044.017 0 .045-.017.09-.044a.663.663 0 0 0 .28-.35.734.734 0 0 0 .057-.207v-.142c0-.036.015-.07.036-.07.024 0 .081.062.113.123.028.045.04.056.073.056h.004a.165.165 0 0 0 .102-.044c.13-.13.215-.288.215-.41l-.009-.202-.044-.164-.004-.017c0-.033.028-.06.053-.06.053 0 .104.068.178.227.037.077.069.113.1.113.054 0 .094-.04.196-.187l.098-.141a.18.18 0 0 0 .032-.11.176.176 0 0 0-.032-.11l-.085-.13a.196.196 0 0 1-.025-.11c0-.15.057-.315.166-.515.08-.141.125-.232.142-.271.017-.046.036-.066.061-.066.02 0 .037.024.037.053l-.013.122v.175c.017.04.045.057.094.057.036 0 .072-.01.113-.024l.276-.098c.064-.024.146-.065.247-.122.43-.235.56-.284.77-.284.13 0 .29.049.52.155.048.02.085.032.114.032.028 0 .064-.021.093-.053a.153.153 0 0 0 .033-.085.284.284 0 0 0-.045-.135.593.593 0 0 1-.066-.162c0-.032.021-.047.05-.047.024 0 .065.029.084.056.028.053.115.2.249.438.206.362.47.613.7.666l.48.11c.145.032.186.089.186.276 0 .34-.162.637-.438.816l-.394.251c-.142.09-.26.341-.26.552 0 .134.033.374.078.56l.073-.077.186-.109.163-.163.09-.239.085-.22c.044-.104.092-.174.13-.174.036 0 .055.062.055.167v.07c0 .157.021.226.143.462"/>
            <path d="M23.184 34.483c.134-.122.154-.13.527-.207.296-.061.434-.195.499-.492.048-.215.077-.255.272-.37a.468.468 0 0 0 .142-.109c.024-.029.045-.044.057-.044.02 0 .036.02.036.048a.46.46 0 0 1-.07.178.395.395 0 0 0-.044.212c0 .174.036.292.13.435.07-.147.106-.187.276-.305.215-.155.296-.33.337-.723.016-.167.048-.252.093-.252.02 0 .036.013.049.032l.077.168c.008.02.036.036.068.036.03 0 .09-.032.138-.08l.155-.143c.06-.062.105-.211.13-.46.008-.088.04-.15.077-.15.02 0 .044.022.053.054l.064.219c.016.048.049.084.077.084.016 0 .044-.017.089-.052a.978.978 0 0 0 .15-.166.353.353 0 0 0 .077-.22v-.182c0-.04.017-.085.045-.122.02-.029.036-.045.049-.045.024 0 .049.023.061.057l.04.122c.02.048.06.084.105.084.058 0 .115-.047.203-.174a.615.615 0 0 1 .065-.085c.05-.06.077-.11.077-.142 0-.012-.015-.04-.044-.077a1.203 1.203 0 0 1-.24-.743c0-.361.139-.67.556-1.234.251-.341.394-.658.394-.878 0-.06-.028-.092-.085-.092a.27.27 0 0 0-.134.04.271.271 0 0 1-.081.033c-.021 0-.05-.018-.074-.045l-.077-.085-.053-.09a.11.11 0 0 0-.088-.053c-.008 0-.037.01-.085.021l-.098.012c-.114.003-.159.045-.159.154l.004.066.005.048c0 .093-.086.244-.199.345l-.206.183c-.256.231-.455.596-.455.836 0 .105.032.273.093.475.098.329.134.484.134.589 0 .523-.802 1.213-2.283 1.969-.75.381-.94.609-.94 1.124l.01.195M22.466 23.026v.272a.625.625 0 0 1-.025.179c-.032.15-.04.203-.04.243 0 .211.028.313.15.532.069.118.114.26.114.366 0 .045-.02.069-.05.069-.019 0-.036-.013-.052-.033l-.09-.121c-.068-.094-.132-.119-.31-.119l-.188.013c.073.186.098.255.13.381.09.357.102.382.296.556.195.175.21.199.21.26 0 .049-.032.09-.076.09l-.069-.013-.044-.002c-.062 0-.115.109-.115.23 0 .07.03.183.07.277.028.064.053.11.077.13l.109.11c.029.03.044.069.044.113 0 .052-.032.097-.068.097a.232.232 0 0 1-.098-.036.193.193 0 0 0-.076-.021c-.05 0-.073.03-.073.09l.02.162.065.284a.517.517 0 0 0 .121.207.494.494 0 0 0 .162.13l.22.098c.02.017.032.048.032.089 0 .04-.032.077-.073.077-.011 0-.049-.008-.113-.023l-.11-.01c-.11 0-.118.004-.118.09 0 .057.005.113.021.17l.045.175c.045.187.105.285.17.285.016 0 .045-.018.081-.046.158-.117.475-.226.673-.226.207 0 .438.022.527.051.05.018.086.03.102.03.028 0 .037-.03.04-.125l.02-.196.045-.34.032-.252v-.142c-.04.037-.068.061-.088.078-.187.174-.301.23-.495.23-.499 0-.787-.564-.787-1.55 0-.407.057-.978.17-1.64.025-.138.036-.236.036-.3 0-.362-.23-.711-.624-.967"/>
            <path d="m23.209 25.474.096-.097.098-.09a.514.514 0 0 0 .146-.336.397.397 0 0 0-.036-.155c-.037-.081-.11-.154-.155-.154-.036 0-.072.09-.085.23l-.024.164-.033.166-.008.162v.11M22.247 29.94c.11.04.134.06.251.194.151.18.236.22.434.22a.444.444 0 0 0 .154-.021l.142-.044.11-.033c.052-.018.086-.036.086-.056 0-.02-.086-.094-.215-.183a2.32 2.32 0 0 0-.264-.155.577.577 0 0 0-.251-.064.797.797 0 0 0-.447.141M23.73 33.139a4.03 4.03 0 0 0 .48-.24c.19-.105.297-.162.316-.175.203-.105.296-.182.296-.239 0-.068-.121-.114-.332-.114-.426 0-.77.289-.77.646l.01.122zM28.16 30.366c.155-.032.207-.073.285-.077l.194.012a.579.579 0 0 0 .13-.085c.036-.03.09-.065.153-.114.22-.146.232-.159.232-.203 0-.06-.09-.094-.272-.094-.345 0-.555.163-.722.561"/>
        </g>
        <g fill="#211E1E">
            <path d="m5.792 4.048-.053-.155-.015-.09c0-.089.044-.138.166-.181.215-.083.283-.119.372-.2l.119-.11.011-.002c.032 0 .057.036.057.085 0 .138-.15.394-.304.654-.113.194-.166.316-.21.316-.054 0-.11-.086-.122-.186l-.02-.13M5.147 3.61l.187.097c.049.029.077.064.077.105l-.012.068c-.028.094-.005.196-.009.236-.008.195-.153.192-.215.192-.036 0-.015-.021-.105-.119l-.24-.275c-.072-.086-.136-.277-.161-.492v-.03c0-.056.016-.081.065-.081.028 0 .081.024.122.057l.291.24M5.805 4.746l.174-.11.102.024c.121 0 .15.032.15.166 0 .195-.122.277-.341.824-.098.243-.114.382-.26.382-.158 0-.28-.13-.406-.439l-.141-.35c-.102-.242-.142-.393-.142-.482 0-.085.064-.139.162-.139.053 0 .106.018.154.046.085.048.13.077.133.077l.127.011.056-.003.232-.008M26.19 4.08l-.09-.187-.016-.09c0-.093.04-.134.178-.181.138-.053.288-.134.362-.2l.117-.11.012-.002c.033 0 .052.036.052.08 0 .143-.125.363-.279.627-.114.19-.187.349-.231.349-.058 0-.11-.086-.122-.187l.017-.098M25.507 3.61l.187.097c.053.029.081.077.081.13l-.004.044-.056.199-.033.215c-.004.03-.028.045-.056.045h-.008a.515.515 0 0 1-.236-.15l-.166-.276a.942.942 0 0 1-.143-.305 1.189 1.189 0 0 1-.044-.187l-.004-.03c0-.056.02-.08.07-.08a.24.24 0 0 1 .12.056l.292.24M26.173 4.746l.166-.11.061-.012c.122 0 .26.118.26.244 0 .11-.142.17-.203.325l-.118.49c-.09.236-.202.35-.345.35-.166 0-.287-.13-.409-.439-.057-.138-.101-.256-.142-.35-.09-.21-.138-.368-.138-.453 0-.106.061-.167.158-.167.053 0 .106.018.155.045.085.049.125.073.13.077l.13.013.056-.004.239-.009zM4.875 24.02l-.052-.162-.012-.049c0-.017.02-.032.045-.032.023 0 .085.032.13.07.048.036.076.036.153.052.297.078.357.134.357.276l-.008.183-.045.166c-.02.07-.036.094-.068.094a.888.888 0 0 1-.236-.17l-.109-.155-.155-.273zM6.198 24.293l-.146.251-.053.062H5.99c-.06 0-.117-.13-.121-.269l-.02-.219c.016-.09.069-.13.203-.15a.654.654 0 0 0 .223-.07c.1-.072.158-.112.174-.117l.016-.003c.029 0 .049.021.049.053v.018l-.077.186-.239.26M5.914 25.036l.174-.085a.155.155 0 0 1 .081-.024c.085 0 .146.061.146.178 0 .126-.097.292-.227.533-.145.26-.255.438-.364.438-.16 0-.382-.248-.596-.666a.744.744 0 0 1-.082-.305c0-.138.057-.21.174-.21.049 0 .09.01.126.032l.097.064a.456.456 0 0 0 .47.045M24.863 23.716l.154.098c.09.057.162.093.22.118.17.073.226.097.226.162 0 .021-.003.081-.02.122a.633.633 0 0 0-.032.154c-.017.15-.106.187-.166.187-.07 0-.15-.114-.272-.329a2.992 2.992 0 0 1-.175-.434l-.004-.045c0-.024.016-.04.045-.04l.024.008M26.34 24.098l-.252.252c-.09.117-.09.22-.11.239a.117.117 0 0 1-.077.032h-.016c-.065 0-.11-.045-.114-.109l-.011-.187-.013-.183v-.011c0-.073.04-.11.098-.122l.231-.064.24-.122a.387.387 0 0 1 .105-.042c.028 0 .048.03.048.062 0 .017-.008.04-.02.068l-.11.187zM25.236 24.84l.162.119c.041.024.094.036.147.036a.653.653 0 0 0 .26-.068l.14-.066a.287.287 0 0 1 .086-.02c.085 0 .155.089.155.207 0 .158-.115.329-.285.569l-.117.251c-.098.134-.162.186-.24.186-.129 0-.19-.077-.384-.462-.138-.276-.196-.443-.196-.577 0-.117.058-.198.147-.198.032 0 .077-.009.125.023"/>
        </g>
        <path d="M5.565 5.062h-.142a.066.066 0 0 0-.057.032l-.02.053.053.264.044.228c.025.126.07.179.162.179.11 0 .175-.078.187-.211l.025-.24c.011-.158.02-.244.02-.248a.1.1 0 0 0-.032-.07.074.074 0 0 0-.058-.022l-.008.002-.174.033zM25.922 5.062h-.13c-.02 0-.04.012-.053.032-.02.03-.032.05-.032.053l.053.264.044.228c.024.126.045.179.138.179.105 0 .199-.078.211-.211l.02-.24c.017-.158.025-.244.025-.248a.102.102 0 0 0-.033-.07.071.071 0 0 0-.056-.022l-.013.002-.174.033zM5.662 25.3l-.121-.024h-.017c-.068 0-.105.04-.105.118 0 .11.085.316.199.475.02.03.053.045.08.045.074 0 .123-.134.16-.353l.032-.162.004-.033c0-.065-.02-.09-.077-.09h-.025l-.13.024zM25.378 25.442l.012.207c.004.094.081.187.158.187.102 0 .17-.15.212-.382.02-.11.024-.122.024-.154 0-.081-.028-.102-.13-.102l-.057.003h-.077l-.049-.003c-.068 0-.093.053-.093.191v.052" fill="#FFF"/>
        <path d="M13.092 14.858h1.157c.13-.276.308-.398.584-.398.272 0 .446.119.604.398h.945a.658.658 0 0 1 .62-.398c.256 0 .507.166.593.398h.876c.134-.255.34-.398.58-.398.243 0 .442.11.588.33l.045.068h1.22v5.659h-1.067v2.172h-1.256v-2.172h-3.168v2.172H14.16v-2.192h-1.068v-5.639z" fill="#211E1E"/>
        <path fill="#FFF" d="M13.547 15.32h6.94v4.763h-6.94z"/>
        <path d="M14.269 16.409a.33.33 0 0 0-.328.333.328.328 0 1 0 .657 0 .332.332 0 0 0-.33-.333" fill="#FFF"/>
        <path d="M14.269 16.409a.33.33 0 0 0-.328.333.328.328 0 1 0 .657 0 .332.332 0 0 0-.33-.333z" stroke="#211E1E" stroke-width=".5"/>
        <path d="M19.716 16.409a.331.331 0 0 0 0 .662.332.332 0 0 0 0-.662" fill="#FFF" fill-rule="nonzero"/>
        <path d="M19.716 16.409a.331.331 0 0 0 0 .662.332.332 0 0 0 0-.662z" stroke="#211E1E" stroke-width=".5"/>
        <path d="M14.269 18.999a.33.33 0 0 0-.328.33c0 .182.15.332.34.332.175 0 .317-.15.317-.333a.33.33 0 0 0-.33-.33" fill="#FFF" fill-rule="nonzero"/>
        <path d="M14.269 18.999a.33.33 0 0 0-.328.33c0 .182.15.332.34.332.175 0 .317-.15.317-.333a.33.33 0 0 0-.33-.33z" stroke="#211E1E" stroke-width=".5"/>
        <path d="M19.716 18.999a.33.33 0 0 0 0 .662.33.33 0 0 0 0-.662" fill="#FFF" fill-rule="nonzero"/>
        <path d="M19.716 18.999a.33.33 0 0 0 0 .662.33.33 0 0 0 0-.662z" stroke="#211E1E" stroke-width=".5"/>
        <g>
            <path d="M15.303 17.997c.446.56 1.014.835 1.712.835.645 0 1.091-.231 1.61-.835-.519-.536-1.006-.76-1.643-.76-.673 0-1.277.277-1.679.76" fill="#FFF"/>
            <path d="M15.636 17.997c.458-.358.848-.508 1.33-.508.487 0 .848.142 1.318.52-.41.406-.77.56-1.326.56-.495 0-.94-.195-1.322-.572" fill="#211E1E"/>
            <path d="M16.196 17.887c.275.174.494.244.75.244.304 0 .555-.078.8-.244a1.836 1.836 0 0 0-.788-.187c-.276 0-.532.06-.762.187" fill="#FFF"/>
            <path stroke="#211E1E" stroke-width=".5" fill="#211E1E" d="M13.45 15.565h7.134v.243H13.45z"/>
            <g fill="#FFF">
                <path d="M14.545 15.256v.682c0 .162.126.285.292.285.195 0 .3-.102.3-.285v-.673c0-.26-.102-.42-.272-.42a.358.358 0 0 0-.133.033c-.037.02-.061.033-.078.046a.274.274 0 0 0-.064.088.424.424 0 0 0-.045.123v.121zM16.69 15.816v.122c0 .162.126.285.292.285.195 0 .304-.102.304-.285v-.673c0-.257-.109-.42-.275-.42-.195 0-.32.159-.32.411v.56zM18.77 15.256v.682c0 .162.127.285.293.285.19 0 .3-.102.3-.285v-.673c0-.26-.105-.42-.271-.42a.368.368 0 0 0-.134.033c-.037.02-.066.033-.077.046a.286.286 0 0 0-.07.088c-.023.061-.04.102-.04.123v.121zM14.39 21.017h.65v.837h-.65zM14.39 22.04h.65v.264h-.65zM18.816 21.017h.649v.837h-.65zM18.816 22.04h.649v.264h-.65z"/>
            </g>
            <g fill="#FFF">
                <path d="M54.463.706v.5h-.328c-.487 0-1.302 0-1.302 1.522v6.24c0 3.82-1.66 5.675-5.075 5.675-3.857 0-5.653-1.542-5.653-4.843V2.728c0-1.523-.824-1.523-1.55-1.523h-.154V.706h5.768v.5h-.155c-.713 0-1.605 0-1.605 1.522v6.755c0 2.911 1.213 4.328 3.71 4.328 2.435 0 3.716-1.527 3.716-4.409V2.728c0-1.523-.84-1.523-1.453-1.523h-.307V.706h4.388zM60.693 13.847v.5h-4.867v-.5h.194c1.594 0 1.802-1.218 1.802-2.59V3.065c0-1.311-.755-1.86-1.821-1.86h-.175V.711h3.828l8.283 10.156V3.142c0-1.746-1.221-1.937-1.744-1.937h-.345V.711h4.915v.494h-.21c-.864 0-1.781.204-1.781 2.59v10.616l-.726.003L58.652 3.04l.005 8.208c0 1.373.199 2.598 1.846 2.598h.19M86.789 11.453l2.997-8.38c.535-1.43.19-1.868-1.047-1.868h-.25V.706h3.876v.5h-.085c-.421 0-.917.125-1.285 1.063l-4.539 12.127h-.864L80.66 2.383c-.389-.999-.852-1.178-1.68-1.178h-.113V.706h5.63v.5h-.366c-.96 0-1.147.604-.875 1.339l3.533 8.908zM109.525 1.352l-.004 6.037h1.168c2.122 0 3.06-.947 3.06-3.163 0-1.799-1.16-2.964-2.905-2.964-.41 0-.966.033-1.319.09zm2.094-.646c3.017 0 4.514 1.112 4.514 3.402 0 1.94-1.513 2.923-2.706 3.407l-.089.032 3.342 5.094c.536.825.97 1.146 1.894 1.195v.51h-3.492l-4.051-6.401h-1.509v4.242c0 1.538.686 1.66 1.65 1.66h.268v.5h-5.921v-.5h.267c.666 0 1.436-.3 1.436-1.144V2.789c0-1.584-.933-1.584-1.436-1.584h-.267V.706h6.1zM125.774 11.757c0-1.66-1.424-2.314-2.75-3.008-1.558-.808-3.347-1.649-3.347-4.166 0-2.436 1.854-4.01 4.502-4.01 1.083 0 2.308.219 2.848.324l.186 2.655-.51.073c-.236-1.396-.962-2.468-2.528-2.468-1.476 0-2.567.905-2.567 2.537 0 1.539 1.42 2.168 2.742 2.838 1.618.812 3.472 1.656 3.472 4.198 0 2.813-2.503 4.071-4.819 4.071-.92 0-2.198-.186-3.228-.767l-.325-2.955.495-.086c.377 1.961 1.622 3.094 3.261 3.094 1.57 0 2.568-.958 2.568-2.33M135.491.706v.5h-.19c-.778 0-1.493.146-1.493 1.205v10.23c0 1.06.715 1.206 1.493 1.206h.19v.5h-5.69v-.5h.195c.774 0 1.493-.146 1.493-1.206V2.411c0-1.06-.719-1.206-1.493-1.206h-.194V.706h5.69zM78.076.706v.5h-.194c-.775 0-1.493.146-1.493 1.205v10.23c0 1.06.718 1.206 1.493 1.206h.194v.5h-5.69v-.5h.19c.779 0 1.497-.146 1.497-1.206V2.411c0-1.06-.718-1.206-1.497-1.206h-.19V.706h5.69zM191.48 20.4l.048 3.621s-.442.11-.58.15c-.13-1.583-.487-2.874-3.014-2.874h-3.399v6.69h2.916c1.432 0 1.822-.8 1.984-2.184h.58v5.594l-.58.008c-.09-1.335-.406-2.374-1.971-2.374h-2.929v5.874c0 1.71 1.468 1.71 3.026 1.71 2.79 0 4.088-.18 4.867-3.005.114.028.572.126.572.126l-.783 3.771h-12.683v-.625h.244c.97 0 1.87-.183 1.87-1.51V22.539c0-1.327-.9-1.514-1.87-1.514h-.244V20.4h11.945zM119.727 21.207l-.004 7.572h1.46c2.66 0 3.832-1.186 3.832-3.967 0-2.257-1.452-3.714-3.638-3.714-.511 0-1.168.03-1.65.11zm2.624-.807c3.783 0 5.657 1.396 5.657 4.263 0 2.435-1.894 3.665-3.39 4.274l-.11.045 4.19 6.385c.674 1.036 1.22 1.438 2.372 1.503v.637h-4.372l-5.086-8.033h-1.89V34.8c0 1.932.856 2.082 2.065 2.082h.34v.625h-7.43v-.625h.34c.828 0 1.801-.378 1.801-1.437V23.01c0-1.98-1.172-1.98-1.8-1.98h-.34v-.63h7.653zM139.251 20.395v.63h-.243c-.974 0-1.874.182-1.874 1.51v12.832c0 1.328.9 1.511 1.874 1.511h.243v.625h-7.138v-.625h.24c.973 0 1.873-.183 1.873-1.51V22.534c0-1.328-.9-1.51-1.873-1.51h-.24v-.63h7.138zM138.452.707h9.012c.455 0 1.039-.115 1.128-.707h.438l-.345 3.556h-.487c-.028-.82-.15-2.018-1.464-2.018h-2.75V12.07c0 1.64.787 1.778 1.668 1.778h.287v.5h-6.21v-.5h.289c1.034 0 1.667-.085 1.667-1.737V1.538h-2.783c-1.415 0-1.553.626-1.825 2.002h-.49l.312-3.512h.401c.183.569.674.683 1.152.679M162.966.706v.508c-.783.044-1.257.58-1.61 1.08l-3.46 5.338v4.356c0 1.733.63 1.859 1.668 1.859h.287v.5h-6.209v-.5h.288c1.079 0 1.666-.271 1.666-1.7v-4.19l-3.755-5.376c-.571-.827-1.005-1.376-1.914-1.376h-.118V.706h5.63v.5h-.175c-1.079 0-1.156.576-.698 1.23l2.913 4.514 2.572-4.076c.591-.89.762-1.669-.698-1.669h-.223V.706h3.836zM169.63 6.934c0 3.37 1.484 6.995 4.75 6.995 2.984 0 4.44-2.075 4.44-6.342 0-3.134-1.67-6.463-4.77-6.463-4.104 0-4.42 4.446-4.42 5.81zm-2.53.69c0-4.043 3.07-7.21 6.991-7.21 4.275 0 7.256 2.769 7.256 6.735 0 4.34-3.009 7.494-7.162 7.494-4.105 0-7.086-2.951-7.086-7.019M182.9 14.343v-.496h.195c.78 0 1.493-.146 1.493-1.205V2.412c0-1.06-.714-1.207-1.493-1.207h-.194V.711h9.523l.032 2.882c-.076.024-.348.09-.454.117-.11-1.169-.377-2.29-2.003-2.29h-3.111v5.335h2.73c1.127 0 1.289-.889 1.297-1.6h.45v4.369h-.446c-.012-.853-.21-1.937-1.61-1.937h-2.421v5.055c0 1.205 1.018 1.205 1.918 1.205h.17v.496h-6.075M41.484 28.941c0-2.545 1.03-5.042 2.802-6.633 1.647-1.478 3.809-2.306 6.251-2.306 2.181 0 4.007.393 5.788 1.226l.178 3.962-.56.073c-.644-2.297-1.715-4.4-5.337-4.4-3.72 0-6.031 2.95-6.031 7.693 0 4.226 1.869 8.22 6.396 8.22 2.543 0 4.356-.954 5.726-2.715l.447.84c-1.541 1.997-3.926 3.057-6.635 3.057-5.512 0-9.025-3.256-9.025-9.017M78.331 23.709l-.563 10.563c-.105 2.342.62 2.545 2.19 2.606h.146v.62h-5.759v-.62h.22c1.938-.078 2.06-1.157 2.149-2.736l.668-10.816c.09-1.477-.717-2.313-2.08-2.313h-.194v-.622h4.838c.057.134 5.804 12.963 5.804 12.963s5.43-12.829 5.492-12.967h4.74v.63h-.092c-1.923 0-2.263.6-2.117 3.016l.66 11.347c.102 1.327.796 1.45 2.106 1.498v.617h-7.093v-.62h.048c1.156-.07 1.988-.12 1.988-1.28l-.021-1.227-.523-10.94s-5.85 14.058-5.91 14.197h-.514c-.058-.142-6.183-13.916-6.183-13.916M146.962 21.211l-.004 13.434c0 1.814.766 2.107 2.6 2.107 4.319 0 6.282-3.723 6.282-7.368 0-5.671-2.336-8.25-7.142-8.25-.426 0-1.33.037-1.736.077zm-5.022 16.292v-.625h.244c.973 0 1.874-.183 1.874-1.51V22.534c0-1.328-.9-1.51-1.874-1.51h-.244v-.63l7.642-.003c2.84 0 5.22.715 6.882 2.262 1.636 1.526 2.504 3.686 2.504 6.252 0 2.399-.958 4.717-2.617 6.37-1.67 1.66-4.015 2.224-6.383 2.224l-8.028.003zM173.511 36.622v-4.194c0-.913-.668-1.4-1.93-1.4h-.198v-.609h6.57v.61h-.2c-.92 0-1.406.486-1.406 1.4l-.004 4.668c-1.566.508-3.67.906-6.007.906-5.642 0-9.289-3.663-9.289-9.326 0-6.02 4.81-8.769 9.338-8.769 2.024 0 4.108.406 5.426.85l.272 4.082-.572.034c-.71-2.94-2.015-4.093-4.96-4.093-3.97 0-6.376 2.93-6.376 7.645 0 4.332 2.032 8.626 6.566 8.626 1.047.024 2.13-.138 2.77-.43M107.49 28.19c2.154.158 3.297.634 4.258 1.62.747.763 1.14 1.73 1.14 2.854 0 2.683-2.461 4.835-5.658 4.835h-8.371v-.62h.336c.832 0 1.802-.399 1.802-1.459V23.01c0-1.98-1.173-1.98-1.802-1.98h-.336v-.626l7.589-.003c3.56 0 5.52 1.29 5.52 3.739 0 2.711-2.381 3.714-4.479 4.051m-3.5-7.16v6.868h1.282c2.356 0 3.654-1.145 3.654-3.329 0-2.415-1.139-3.54-3.39-3.54h-1.546zm0 7.615v6.02c0 1.673.532 2.148 2.264 2.148 2.08 0 3.655-1.713 3.655-4.047 0-2.631-1.603-4.12-4.28-4.12h-1.639zM64.424 23.887l2.39 6.662H62.03l2.393-6.662zm.296-3.492L59.297 35.16c-.4 1.052-1.11 1.698-2.166 1.698h-.056v.64h5.2v-.64h-.227c-1.254 0-2.106-.403-1.562-2.018l1.245-3.451h5.383l1.346 3.763c.39 1.186-.118 1.722-1.404 1.722h-.149v.633h6.62v-.633h-.054c-.88 0-1.485-.463-1.898-1.637L66.01 20.4l-1.29-.004M102.805.706l.037 2.886s-.35.086-.458.119c-.106-1.263-.39-2.29-2.406-2.29h-2.705v5.33h2.324c1.14 0 1.448-.637 1.577-1.738h.463v4.454l-.463.009c-.068-1.063-.32-1.892-1.569-1.892h-2.332v4.681c0 1.36 1.173 1.36 2.41 1.36 2.226 0 3.256-.138 3.88-2.395.09.023.455.1.455.1l-.625 3.01H93.286v-.5h.19c.776 0 1.493-.146 1.493-1.206V2.408c0-1.055-.717-1.202-1.493-1.202h-.19V.707h9.52"/>
            </g>
        </g>
    </g>
</svg>
