<svg width="135" height="40" xmlns="http://www.w3.org/2000/svg">
    <path d="M24.251 0c8.729 0 15.815 7.075 15.815 15.789.017 6.545-3.976 12.165-9.673 14.557A15.81 15.81 0 0 1 15.815 40C7.086 40 0 32.925 0 24.211c0-6.54 3.992-12.157 9.674-14.552C12.074 3.985 17.7 0 24.25 0zM8.446 15.235l-.134.11a11.556 11.556 0 0 0-4.105 8.844c0 6.4 5.219 11.589 11.608 11.589 3.602 0 6.821-1.638 8.95-4.209-.17.006-.342.009-.514.009-8.729 0-15.815-7.075-15.815-15.79 0-.185.003-.37.01-.553zM106.587 4.2v29.983l-3.622 1.145V5.345l3.622-1.145zm17.862 9.478c5.804 0 10.551 4.716 10.551 10.533 0 5.817-4.724 10.534-10.55 10.534-5.827 0-10.551-4.717-10.551-10.534 0-5.817 4.724-10.533 10.55-10.533zm-39.188 0c6.029 0 9.853 4.626 9.876 10.42v1.393H79.232c.675 3.908 3.96 5.772 6.951 5.772 2.25 0 4.814-1.055 6.592-2.83v4.178c-1.688 1.235-3.937 2.111-6.884 2.111-5.827 0-10.506-4.806-10.506-10.69 0-5.436 3.644-10.354 9.876-10.354zm-24.139-.023c2.7 0 5.287.876 7.222 2.74l-1.485 3.414c-1.35-1.684-3.465-2.695-5.737-2.695-3.577 0-6.861 2.74-6.861 6.895 0 4.492 3.802 7.232 7.176 7.232 2.227 0 4.792-1.056 6.57-2.83v4.177c-1.688 1.236-3.938 2.112-6.885 2.112-5.826 0-10.46-4.807-10.505-10.691-.045-5.435 4.251-10.354 10.505-10.354zm63.327 3.459c-3.914 0-7.086 3.167-7.086 7.075 0 3.908 3.172 7.074 7.086 7.074a7.065 7.065 0 0 0 7.087-7.074c0-3.908-3.172-7.075-7.087-7.075zM15.815 12.6c-.888 0-1.752.1-2.583.288l-.225.053-.004.018-.019.006a11.599 11.599 0 0 0-.341 2.801c.022 6.401 5.219 11.59 11.608 11.59.975 0 1.921-.12 2.826-.346.226-.903.346-1.848.346-2.821 0-6.401-5.197-11.59-11.608-11.59zm8.436-8.423c-3.61 0-6.834 1.645-8.963 4.224l.032-.001-.026.031.206-.006.315-.003c8.728 0 15.815 7.075 15.815 15.79 0 .17-.003.339-.008.507a11.555 11.555 0 0 0 4.237-8.953c0-6.4-5.197-11.589-11.608-11.589zm61.055 12.937c-2.835 0-5.827 1.774-6.074 5.188H91.38c-.248-3.414-3.24-5.188-6.074-5.188z" fill="#FFF" fill-rule="nonzero" opacity=".4"/>
</svg>
