<svg width="158" height="40" xmlns="http://www.w3.org/2000/svg">
    <g fill="none" fill-rule="evenodd" opacity=".4">
        <path d="M149.307 4.791c-1.594 0-3.695.145-4.456.145-.434 0-2.137-.072-2.644-.072v.4c.87.18 1.377.471 1.377 1.306v11.76c0 .835-.507 1.198-1.413 1.343v.436c.507 0 2.065-.073 2.536-.073.724 0 2.716.145 4.31.145 5.578 0 8.983-3.303 8.983-7.804 0-4.573-3.26-7.586-8.693-7.586zm-65.997.037c-.833 0-2.934.108-3.694.108-.471 0-2.065-.072-2.572-.072v.4c.978.144 1.34.616 1.34 1.342v11.688c0 .835-.507 1.234-1.34 1.38v.435c.507 0 2.137-.073 2.536-.073.47 0 2.137.073 2.644.073v-.436c-.906-.181-1.413-.617-1.413-1.379v-5.19c.254.036.471.072.725.108 1.159.182 1.81.726 2.318 1.38.833 1.052 2.354 3.194 3.151 4.21.978 1.162 1.92 1.597 3.188 1.597.58 0 1.34-.072 1.81-.181v-.327c-.977-.036-1.92-1.053-2.607-1.924-.725-.87-2.536-3.412-3.188-4.174-.543-.617-1.05-.907-1.05-.907 2.318-.581 3.84-1.924 3.84-3.957 0-2.577-2.065-4.101-5.688-4.101zm47.958 0c-.833 0-2.934.108-3.694.108-.471 0-2.065-.072-2.572-.072v.4c.978.144 1.34.616 1.34 1.342v11.688c0 .835-.507 1.234-1.34 1.38v.435c.507 0 2.137-.073 2.535-.073.471 0 2.137.073 2.645.073v-.436c-.906-.181-1.413-.617-1.413-1.379v-5.19c.253.036.47.072.724.108 1.16.182 1.811.726 2.319 1.38.833 1.052 2.282 3.194 3.115 4.21.941 1.162 1.956 1.597 3.187 1.597.58 0 1.34-.072 1.811-.181v-.327c-.978-.036-1.883-1.053-2.608-1.924-.724-.87-2.499-3.412-3.151-4.174-.543-.617-1.05-.907-1.05-.907 2.318-.581 3.84-1.924 3.84-3.957-.037-2.577-2.066-4.101-5.688-4.101zm-65.235 0s-.254.98-.471 1.488L60.708 18.04c-.362.835-.87 1.452-1.847 1.67v.399l2.21-.036c.325 0 1.63.036 2.136.036v-.4c-.87-.217-1.086-.58-1.086-.98 0-.29.144-.69.253-.98l1.014-2.504h5.687l1.087 2.505c.145.363.29.725.29 1.052 0 .363-.218.762-.978.944v.4c.58 0 2.21-.037 2.608-.037.398 0 2.1.036 2.68.036v-.4c-1.014-.253-1.413-.834-1.775-1.669l-5.18-11.76c-.217-.472-.434-1.488-.434-1.488h-1.34zm48.175 0s-.254.98-.435 1.488l-4.854 11.724c-.362.835-.869 1.452-1.81 1.67v.399l2.245-.036c.326 0 1.594.036 2.1.036v-.4c-.832-.217-1.05-.58-1.05-.98 0-.29.11-.69.254-.98l1.014-2.504h5.687l1.087 2.505c.145.363.29.725.29 1.052 0 .363-.218.762-.979.944v.4c.544 0 2.21-.037 2.608-.037.399 0 2.138.036 2.68.036v-.4c-1.013-.253-1.412-.834-1.774-1.669l-5.144-11.76c-.217-.472-.47-1.488-.47-1.488h-1.45zm-73.93.072v.4c.761.18 1.232.508 1.232 1.306V18.44c0 .799-.507 1.125-1.231 1.307v.4l2.354-.037c.471 0 2.174.036 2.536.036v-.4c-.76-.18-1.232-.471-1.232-1.306v-5.59h8.802v5.59c0 .799-.507 1.125-1.195 1.307v.4c.362 0 2.028-.037 2.5-.037l2.426.036v-.4c-.76-.18-1.268-.507-1.268-1.306V6.606c0-.798.544-1.125 1.268-1.307V4.9l-2.427.073c-.47 0-2.137-.073-2.5-.073v.4c.761.18 1.196.508 1.196 1.306v4.937h-8.802V6.606c0-.798.544-1.125 1.232-1.307V4.9c-.362 0-2.065.073-2.536.073-.362-.037-1.992-.073-2.354-.073zm51.291.036v.436c.87.182 1.376.726 1.702 1.488l5.977 13.394h1.16l5.469-12.922c.507-1.198 1.086-1.706 1.992-1.96v-.436c-.543 0-1.956.073-2.318.073-.363 0-1.558-.073-2.065-.073v.436c.616.109 1.05.436 1.05.907 0 .436-.217.98-.507 1.706l-3.694 8.93-3.912-8.93c-.435-.943-.652-1.415-.652-1.778 0-.508.58-.762 1.05-.871V4.9c-.543 0-2.173.073-2.535.073-.399.036-2.174-.037-2.717-.037zm-8.983.872c2.5 0 3.876 1.27 3.876 3.339 0 1.452-.906 3.085-3.731 3.085-.688 0-1.413-.036-1.884-.072V5.99a9.425 9.425 0 0 1 1.739-.182zm47.958 0c2.5 0 3.876 1.27 3.876 3.339 0 1.452-.906 3.085-3.731 3.085-.689 0-1.413-.036-1.884-.072V5.99a9.11 9.11 0 0 1 1.739-.182zm18.038 0c4.238 0 6.738 2.795 6.738 6.751 0 3.811-2.355 6.57-6.919 6.57-.797 0-1.81-.073-2.354-.145V5.989c.58-.109 1.666-.181 2.535-.181zm-82.44 2.577 2.426 5.662h-4.673l2.246-5.662zm48.174 0 2.391 5.662h-4.673l2.282-5.662zM16.481.218H.145L.072 13.32c0 16.08 16.083 26.316 16.228 26.389l.036.036a.53.53 0 0 0 .145-.073c2.753-1.778 16.372-11.47 16.372-26.28V.219H16.481" fill="#FFF"/>
        <path d="M33.215.762c0 4.429.073 8.784 0 13.249-.072 3.049-.724 6.062-1.847 8.893-2.644 6.642-7.715 12.196-13.438 16.152-.471.327-.978.654-1.449.944-3.369-2.178-6.375-4.973-8.983-8.022C3.224 26.897.145 20.653 0 13.721V0h33.215v.762zM.58 13.502c.072 8.095 4.636 15.826 10.431 21.344 1.703 1.633 3.478 3.121 5.434 4.428h.036c3.115-1.924 5.94-4.465 8.403-7.187 4.528-5.082 7.716-11.543 7.752-18.62V.507H.58V13.503z" fill="#231F20"/>
        <path d="M24.667 15.68s-.29.908-1.521-.036l-4.274-.109s-.544.182-.652-.399c0 0 .108-1.161.036-1.27 0 0 .036-.327-.543-.327 0 0-.87.109-.87-.653 0 0-.145-.799 1.05-.799 0 0 .4.182.4-.29 0 0-.037-3.303-.037-3.557 0 0 .109-.29-.471-.363 0 0-.833.181-.942-.363 0 0-.036-.835.507-.908 0 0 .689.036.797-.109 0 0 .145.11.145-.508l.036-1.053s.073-.29.507-.254c0 0 .797.037.906-.036 0 0 .181-.218.217-.327 0 0 .399-.036.471.073 0 0 .616.4 2.934.254 0 0 .362 0 .435.109 0 0 .434.327.688-.036 0 0 .398-.073 1.521-.037 0 0 1.232.327 2.101-.399l.29.036s.362.581.616.4c0 0 .76-.073.905.072 0 0 .254.363.109 1.38 0 0-.145.435.58.435 0 0 .833-.145.724.617 0 0 .217.908-1.16.762 0 0-.18.255-.144.436 0 0-.036 2.904-.036 3.23 0 0-.036.472.58.436 0 0 .796-.036.832.69 0 0 .11.98-1.05.798 0 0-.362.037-.398.29l-.037 1.271s.037.653-.688.472c-.109 0-3.948.073-4.274-.036-.073.036-.254 0-.29.109M16.481 19.927s.181-.072.217-.217c0 0 .544-.037.616-.146l1.666.146s1.666.109 2.355-.4c0 0 .253 0 .434.073 0 0 .363.073.471.218l.978-.037s.544.182.507.545v.472s-.108.907.145.98h.725s.615.29.543.617c0 0 .036.508-.507.617 0 0-.543.145-.725.145 0 0-.18.218-.217.508l-.072 3.34s-.037.363.47.29c0 0 .797-.073 1.015.363 0 0 .217.726-.218.871l-.29.145-.651.11s-.29.036-.29.507v.872s.036.617-.471.617l-.724.036s-.182.145-.544.036c0 0-4.31.073-4.455.037l-.507.108s-.543.509-1.014.11l-.363-.291s-.253.036-.362.036c-.108-.036-4.781.037-4.781.037s-.978.108-1.05-.218c0 0-.11-1.307-.073-1.452 0 0 0-.363-.217-.4 0 0-.978-.036-1.015-.145 0 0-.543-.363-.398-.762 0 0 .181-.508.724-.544 0 0 .797.145.797-.11 0 0 .037-.144.037-.399 0 0 .036-3.012.036-3.23 0 0 .072-.4-.254-.4 0 0-.362.11-.58-.036 0 0-.615.037-.724-.471 0 0-.108-.29.036-.545 0 0 .29-.544 1.087-.363 0 0 .471.145.507-.218l-.036-1.234s-.109-.326.543-.508c0 0 .797.218 1.05-.181 0 0 .29-.545.508-.182 0 0 .47.472 1.811.4 0 0 2.282-.182 2.318-.073 0 0 .544.072.725.254l.217.072zm-6.918-4.246s-.29.907-1.522-.037l-4.274-.109s-.543.182-.652-.399c0 0 .109-1.161.036-1.27 0 0 .037-.327-.543-.327 0 0-.87.109-.87-.653 0 0-.144-.835 1.051-.799 0 0 .362.182.399-.29 0 0-.037-3.303-.037-3.557 0 0 .109-.29-.47-.363 0 0-.834.181-.942-.4 0 0-.037-.835.507-.907 0 0 .688.036.797-.109 0 0 .145.109.108-.508L3.188 4.9s.072-.29.507-.254c0 0 .797.036.905-.036 0 0 .181-.218.218-.327 0 0 .398-.036.47.073 0 0 .616.399 2.934.254 0 0 .363 0 .435.109 0 0 .435.326.688-.037 0 0 .399-.072 1.522-.036 0 0 1.231.327 2.1-.363l.29.036s.362.581.616.4c0 0 .76-.073.906.072 0 0 .253.4.108 1.38 0 0-.145.435.58.435 0 0 .833-.145.724.617 0 0 .218.908-1.159.762 0 0-.181.255-.145.436 0 0-.036 2.904-.036 3.23 0 0-.036.472.58.436 0 0 .796-.036.833.69 0 0 .108.98-1.05.798 0 0-.363.037-.4.29l-.035 1.271s.036.653-.689.472c-.108 0-3.948.073-4.274-.036-.036.036-.181 0-.253.109" fill="#FFF"/>
        <path d="M24.667 15.68s-.29.908-1.521-.036l-4.274-.109s-.544.182-.652-.399c0 0 .108-1.161.036-1.27 0 0 .036-.327-.543-.327 0 0-.87.109-.87-.653 0 0-.145-.799 1.05-.799 0 0 .4.182.4-.29 0 0-.037-3.303-.037-3.557 0 0 .109-.29-.471-.363 0 0-.833.181-.942-.363 0 0-.036-.835.507-.908 0 0 .689.036.797-.109 0 0 .145.11.145-.508l.036-1.053s.073-.29.507-.254c0 0 .797.037.906-.036 0 0 .181-.218.217-.327 0 0 .399-.036.471.073 0 0 .616.4 2.934.254 0 0 .362 0 .435.109 0 0 .434.327.688-.036 0 0 .398-.073 1.521-.037 0 0 1.232.327 2.101-.399l.29.036s.362.581.616.4c0 0 .76-.073.905.072 0 0 .254.363.109 1.38 0 0-.145.435.58.435 0 0 .833-.145.724.617 0 0 .217.908-1.16.762 0 0-.18.255-.144.436 0 0-.036 2.904-.036 3.23 0 0-.036.472.58.436 0 0 .796-.036.832.69 0 0 .11.98-1.05.798 0 0-.362.037-.398.29l-.037 1.271s.037.653-.688.472c-.109 0-3.948.073-4.274-.036-.073.036-.254 0-.29.109" fill="#231F20"/>
        <path d="M24.124 14.446s-.471 0-.471.654c0 0 .036.472.543.472 0 0 .471-.073.399-.581.036 0-.218-.653-.471-.545zm5.76-6.787s-.254.145-.182.472l-.072 3.702s-.037.617.543.617c0 0 .616-.036.76.182 0 0 .435.653-.507.58 0 0-.58-.036-.724.073 0 0-.109.109-.181 1.307 0 0 .036.726-.471.617 0 0-3.514.036-3.876-.037 0 0-.362.11-.398-.181 0 0 0-.218.362-.218l3.55-.036s.326.181.326-.436c0 0 .145-2.758.145-5.807 0-.908.036-1.852 0-2.759 0 0-.073-.4-.181-.472 0 0 0-.4.434-.254 0 0 .399.036.29.617l.036.871s-.072.4.616.29c0 0 .688.11.724.364 0 0 .218.508-.615.472h-.58v.036zm-10.795 7.55c-.507-.037-.47-.4-.47-.4v-.98c.035-.508-.508-.617-.508-.617-.724.146-.906-.29-.906-.29-.036-.545.834-.472.834-.472.724 0 .507-.653.507-.653l.036-3.848c-.036-.363-.978-.363-.978-.363-.58.11-.435-.472-.435-.472.29-.29.906-.254.906-.254.543.037.543-.544.543-.544l.036-1.053c.58-.544.689-.109.689-.109-.326.508-.254 1.743-.254 1.743l-.036-.11c.036.11-.036 7.296-.036 7.296.036.799.58.618.58.618l3.295.036c.29 0 .326.218.326.218 0 .254-.217.217-.217.217h-3.912v.037zm.688-1.126s-.108.363.29.29h2.608l.724.146s.725-.181 0-.58c0 0-2.318.036-2.535-.037l-.58-.145s-.253-.073-.507.326zm4.709.11s.217-.255.398-.255c0 0 2.536.218 2.97-.072 0 0 .4-.073.472 0 0 0 .362.29.362.472 0 0-.036.217-.471.108 0 0-2.862.037-3.007.037 0 0-.796.181-.724-.29zm-5.071-.146c-.036 0-.109 0-.145-.29l.036-7.623s.037-.943.544-.907c0 0 .036.508.036.653 0 .11-.073 7.369-.073 7.369s.11.508-.398.798zm9.563-7.477-.11 6.969c-.035.254-.072.4-.072.4-.326.072-.543-.654-.543-.654l.036-8.022c.435-.617.689.617.689.617v.69zm-4.71-1.198s-.072 3.848-.036 3.956l-.036 3.231-.108 1.125s.144.218.29.073c0 0 .796-.218 1.303-.11 0 0 1.63.146 1.956-.108 0 0 .254.145.326-.29 0 0 .109-7.115.037-7.26 0 0 .108-1.016.036-1.125 0 0-.036-.218-.471-.036 0 0 .036.217-2.355.108 0 .073-.905.037-.941.436zm-4.02-.4-.072 8.168s-.037.363.615.472c0 0 .725.072.906 0 0 0 .47-.037 1.739.036 0 0 .29.29.326-.073 0 0 .217-6.606.108-7.985 0 0-.036-.58-.47-.617 0 0-1.92.145-2.102 0l-.76-.218s-.326 0-.29.218z" fill="#FFF"/>
        <path d="M22.458 7.514c1.014.326.869 1.052.869 1.052.072.726-.725 1.053-.725 1.053l-.036.4.725 1.16c.108.11.108.218.108.218-.108.29-.507 0-.507 0l-.905-1.415c-.073-.109-.218.072-.218.072l-.036.799.217.363c.145.218-.108.363-.108.363l-.797-.073c-.145-.072 0-.326 0-.326.217-.11.217-.472.217-.472l-.036-1.488.036-1.053c0-.145-.217-.363-.217-.363-.181-.036-.109-.254-.109-.254.036-.145.471-.036.471-.036h1.05zm2.716.181c-.072-.218.435-.218.435-.218l.253.037c.182-.037.363.036.363.036.18.29-.145.435-.145.435l-.109.327c-.036.29 0 2.686 0 2.686.036.11.254.363.254.363 0 .218-.29.182-.29.182l-.725.036c-.217-.036-.144-.29-.144-.29.253-.11.326-.581.326-.581V8.203l-.218-.508zm-3.405.363c.037.545.037 1.307.037 1.307.47.4.76-.145.76-.145.616-.617 0-1.162-.108-1.307-.11-.145-.616-.036-.616-.036l-.073.181zm-5.288 11.87s.181-.073.217-.218c0 0 .544-.037.616-.146l1.666.146s1.666.109 2.355-.4c0 0 .253 0 .434.073 0 0 .363.073.471.218l.978-.037s.544.182.507.545v.472s-.108.907.145.98h.725s.615.29.543.617c0 0 .036.508-.507.617 0 0-.543.145-.725.145 0 0-.18.218-.217.508l-.072 3.34s-.037.363.47.29c0 0 .797-.073 1.015.363 0 0 .217.726-.218.871l-.29.145-.651.11s-.29.036-.29.507v.872s.036.617-.471.617l-.724.036s-.182.145-.544.036c0 0-4.31.073-4.455.037l-.507.108s-.543.509-1.014.11l-.363-.291s-.253.036-.362.036c-.108-.036-4.781.037-4.781.037s-.978.108-1.05-.218c0 0-.11-1.307-.073-1.452 0 0 0-.363-.217-.4 0 0-.978-.036-1.015-.145 0 0-.543-.363-.398-.762 0 0 .181-.508.724-.544 0 0 .797.145.797-.11 0 0 .037-.144.037-.399 0 0 .036-3.012.036-3.23 0 0 .072-.4-.254-.4 0 0-.362.11-.58-.036 0 0-.615.037-.724-.471 0 0-.108-.29.036-.545 0 0 .29-.544 1.087-.363 0 0 .471.145.507-.218l-.036-1.234s-.109-.326.543-.508c0 0 .797.218 1.05-.181 0 0 .29-.545.508-.182 0 0 .47.472 1.811.4 0 0 2.282-.182 2.318-.073 0 0 .544.072.725.254l.217.072z" fill="#231F20"/>
        <path d="M16.336 29.437s.435.073.435.472c0 .4.036.654-.218.69-.253.036-.543-.036-.615-.363-.073-.29.036-.726.398-.799zm-5.904-9.183s-.29.545-.29.69l-.036 1.706s-.036 1.089 0 1.234c.036.109-.036 3.34-.036 3.34s-.037.616 0 .798v1.38s-.037.616.398.471c0 0 4.455-.109 4.745-.036 0 0 .399.072.254.29 0 0 0 .182-.29.145 0 0-2.1.218-4.02.11 0 0-1.268.072-1.34-.073 0 0-.218-.037-.218-.763 0 0 0-.69-.036-.798 0 0 .036-.363-.58-.436 0 0-.906.145-.906-.363 0 0 .11-.4.978-.326 0 0 .652.108.508-.4l.072-3.775s.072-.653-.362-.69c0 0-.399-.036-.544.037 0 0-.724 0-.688-.436 0 0 .254-.472.978-.363 0 0 .544.11.58-.544 0 0-.036-1.307.29-1.343.072-.036.724-.036.543.145zm12.352-.181c.072-.037.434-.11.507.036 0 0 .217.617.036.98 0 0-.036.726.326.726 0 0 .145.145.47.072 0 0 .653.073.653.29 0 0 0 .473-.471.4l-.616.036s-.398.073-.362.545c.036.472-.036 3.956-.036 3.956s0 .4.652.4c0 0 .797-.037.797.217 0 0 .217.509-.363.545 0 0-1.05-.036-.978.29 0 0-.072.726-.145.835 0 0 .11.58-.036.69 0 0-.072.326-.76.29 0 0-4.383-.036-5.035.036 0 0-.399-.036-.29-.399 0 0 .29-.145.507-.109.217.037 3.188-.036 3.188-.036s1.304.109 1.485-.073l.29-.109s.144-.145.144-.363c0-.217.037-.907.037-.907l.072-.254s-.036-.254 0-7.042c0 0 .109-.544-.217-.87 0 0 0-.219.108-.182h.037zm-1.993 8.929c.037 0 .616 0 .797-.218 0 0 .181-.036.29.145l.362.4s.036.254-.398.217c-.073 0-4.13 0-4.274.037 0 0-.797.108-.725-.29 0 0 .471-.291.652-.255 0 0 2.318.145 3.007.036.326-.072.398-.072.398-.072h-.109zm-9.598-.327s.072.073.18.145c.146.11.435.218.761.218l3.441.036h.037s.398.037.362.218c0 0-.036.29-.507.218l-4.166-.036-.434.036s-.29-.036.18-.653l.146-.182zm-.254-.363c0 .182-.036.508-.362.726 0 0-.218.29-.218-.145l.11-7.84s.035-.581.398-.835c0 0 .18 0 .144.29l-.072 7.695v.11zm11.374.726c-.145-.072-.471-.653-.471-.653l.036-.182.036-7.804c0-.399.326-.145.326-.145l.29.545c-.072.399 0 .653 0 .653l-.036 7.332c.072.508-.145.29-.181.254zm-6.086-4.174s.037.617-.036 1.198c-.036.326.109 1.815-.036 2.577 0 0-.036.254-.543.036 0 0-3.26.073-3.333-.036 0 0-.905.036-.978-.436 0 0 .109-3.484.036-3.63 0 0-.036-1.923 0-2.068 0 0 .073-1.743.037-1.96 0 0 .036-.4-.037-.618 0 0 0-.254.435-.108 0 0 .145.29.978.145 0 0 .616.109 1.195.036 0 0 1.304-.109 1.63 0 0 0 .508-.109.652.472l-.036 1.56.145.509.181-.11.073-.398.036-1.67s.109-.29.507-.363c0 0 .652-.073.724-.036.11.036 1.486.109 1.848.036.362-.073.47.254 1.593-.327 0 0 .29.037.29.218 0 0-.108 2.178 0 2.577 0 0 0 3.957-.072 4.247l.036 1.27s.036.545-.833.618c0 0 .543.072-2.934-.037 0 0-.543-.036-1.16.254 0 0-.108-.036-.108-.363 0 0 .109-1.197 0-2.359l-.036-1.307-.254.073z" fill="#FFF"/>
        <path d="M13.945 23.049s.073 1.887 0 2.142l-.036.399s.109.29.254.363c0 0 .145.363-.181.326 0 0-.616-.036-.797-.036 0 0-.362 0 0-.472 0 0 .108-.181.108-.653 0 0 0-2.142.037-2.25 0 0 .036-.29-.145-.363l-.29.036-.362.363s-.073.4-.254-.036v-.218l.218-.617.144-.037s.218.146.435.218h1.195l.435-.218s.181.037.145.254c0 0 .072.581-.254.654 0 0-.217-.073-.29-.363-.036.109-.362-.073-.362.508zm5.579-.653s-.978-.073-.978.98c0 0-.109.726.978 1.161 0 0 .796.363.724.871 0 0-.109.871-.942.436 0 0-.398-.218-.362-.436 0 0-.145-.29-.29-.217 0 0-.18.036-.108.907 0 0 0 .327.362 0l.217.036s.688.545 1.268-.145c0 0 .652-.58.181-1.307 0 0-.326-.508-.905-.762 0 0-.544-.254-.689-.69 0 0 .181-.762.87-.362 0 0 .253.29.398.362 0 0 .217 0 .145-.471l-.036-.363s-.037-.29-.399 0c0 0-.326.109-.434 0zm-3.08-.545c.182.145.218.4.218.4.507 1.342.942 3.303.942 3.303.109.254.362.471.362.471.435.146 0 .29 0 .29-.181.073-.76-.036-.76-.036-.29-.072-.182-.145-.182-.145.145-.109.037-.653.037-.653-.037-.218-.254-.545-.254-.545-.109-.036-.29.182-.29.182s-.29.109-.29 0c-.036-.109-.217-.182-.217-.182-.29 0-.435.763-.435.763.182.653 0 .544 0 .544-.144.218-.652.073-.652.073-.217-.073-.072-.218-.072-.218.29-.036.362-.363.362-.363.145-.181.942-3.485.942-3.485.072-.217.109-.544.29-.399zm-.398 1.67c-.036.145-.217.835-.217.835l.145.254s.398.036.543.036c.145 0 .181-.109.181-.254 0-.109-.29-.871-.29-.871l-.144-.145-.218.145zm-6.483-7.84s-.29.907-1.522-.037l-4.274-.109s-.543.182-.652-.399c0 0 .109-1.161.036-1.27 0 0 .037-.327-.543-.327 0 0-.87.109-.87-.653 0 0-.144-.835 1.051-.799 0 0 .362.182.399-.29 0 0-.037-3.303-.037-3.557 0 0 .109-.29-.47-.363 0 0-.834.181-.942-.4 0 0-.037-.835.507-.907 0 0 .688.036.797-.109 0 0 .145.109.108-.508L3.188 4.9s.072-.29.507-.254c0 0 .797.036.905-.036 0 0 .181-.218.218-.327 0 0 .398-.036.47.073 0 0 .616.399 2.934.254 0 0 .363 0 .435.109 0 0 .435.326.688-.037 0 0 .399-.072 1.522-.036 0 0 1.231.327 2.1-.363l.29.036s.362.581.616.4c0 0 .76-.073.906.072 0 0 .253.4.108 1.38 0 0-.145.435.58.435 0 0 .833-.145.724.617 0 0 .218.908-1.159.762 0 0-.181.255-.145.436 0 0-.036 2.904-.036 3.23 0 0-.036.472.58.436 0 0 .796-.036.833.69 0 0 .108.98-1.05.798 0 0-.363.037-.4.29l-.035 1.271s.036.653-.689.472c-.108 0-3.948.073-4.274-.036-.036.036-.181 0-.253.109" fill="#231F20"/>
        <path d="M4.781 5.19s.037.509.037.618c0 .109-.073 7.368-.073 7.368s.073.545-.398.835c0 0-.109.036-.145-.29l.036-7.623s.036-.944.543-.907zm8.404.11-.036 8.021s.217.726.543.654c0 0 .036-.146.072-.4l.109-7.658c0-.037-.254-1.235-.688-.618z" stroke="#030404" stroke-width=".5" fill="#231F20"/>
        <path d="M8.947 14.52s-.471 0-.471.616c0 0 .036.472.543.472 0 0 .471-.073.399-.58.036.036-.218-.618-.471-.509zm5.832-6.861s-.254.145-.182.472l-.072 3.702s-.036.653.543.617c0 0 .652-.036.761.182 0 0 .435.653-.507.58 0 0-.58-.036-.725.073 0 0-.108.145-.18 1.307 0 0 .036.726-.472.653 0 0-3.513.036-3.84-.036 0 0-.361.109-.398-.182 0 0 0-.218.363-.218l3.55-.036s.325.182.325-.435c0 0 .145-2.76.145-5.844 0-.908.037-1.852 0-2.759 0 0-.072-.363-.18-.472 0 0 0-.4.434-.254 0 0 .362.036.29.617l.036.908s-.073.363.616.29c0 0 .688.109.724.363 0 0 .217.508-.616.472h-.615zm-10.795 7.55c-.507-.037-.47-.4-.47-.4v-.98c.036-.508-.508-.617-.508-.617-.724.146-.905-.29-.905-.29-.036-.545.833-.472.833-.472.724 0 .507-.653.507-.653l.036-3.848c-.036-.363-.978-.363-.978-.363-.58.11-.434-.472-.434-.472.29-.29.905-.254.905-.254.544.037.544-.544.544-.544l.036-1.053c.58-.544.688-.109.688-.109-.326.508-.254 1.743-.254 1.743l-.036-.11c.036.146-.036 7.296-.036 7.296.036.799.58.618.58.618l3.296.036c.29 0 .326.218.326.218 0 .254-.218.217-.218.217l-3.912.037zm.906-.763c-.362.073-.29-.29-.29-.29.218-.435.471-.327.471-.327.109.037.58.146.58.146.217.036 2.535.036 2.535.036.725.4 0 .58 0 .58l-.724-.145H4.89zm4.419-.181s.217-.254.398-.254c0 0 2.536.218 2.97-.073 0 0 .4-.072.472 0 0 0 .398.29.398.472 0 0-.036.218-.47.11 0 0-2.862.035-3.007.035-.037 0-.833.182-.761-.29zM4.781 5.191s.037.508.037.617c0 .109-.073 7.368-.073 7.368s.073.545-.398.835c0 0-.109.036-.145-.29l.036-7.623s.036-.944.543-.907zm8.404.108-.036 8.022s.217.726.543.654c0 0 .036-.146.072-.4l.109-7.658c0-.037-.254-1.235-.688-.618zm-4.02.037s-.073 3.847-.037 3.956l-.036 3.23-.109 1.126s.145.218.29.073c0 0 .797-.218 1.304-.11 0 0 1.63.146 1.956-.108 0 0 .253.109.326-.29 0 0 .108-7.115.036-7.26 0 0 .109-1.017.036-1.125 0 0-.036-.218-.47-.037 0 0 .036.218-2.355.145.036.037-.906 0-.942.4zm-4.021-.363L5.07 13.14s-.036.363.616.472c0 0 .724.072.905 0 0 0 .471-.037 1.739.036 0 0 .29.29.326-.073 0 0 .217-6.606.109-7.985 0 0-.037-.58-.471-.617 0 0-1.92.145-2.101 0l-.76-.218s-.327 0-.29.218z" fill="#FFF"/>
        <path d="m9.852 8.094-.036 2.686-.072.218s-.254.327-.073.363c0 0-.217.145 1.63.182 0 0 .725.109.544-.799 0 0-.073-.327-.326.145 0 0-.073.4-.978.29 0 0-.218-.18-.218-.362V9.69s-.036-.29.399-.254c0 0 .47.29.543.182 0 0 .181-.4 0-.653 0 0-.217-.037-.254.072 0 0-.144.29-.58.109 0 0-.216-.4-.072-.726 0 0-.036-.653.399-.58 0 0 .507.108.543.253 0 0 .109.29.254-.036l-.145-.435s-.073-.182-.217-.146c0 0-.87.146-.978.037l-.689.072s-.108.254.218.363c.036 0 .108.073.108.145zm-1.485-.399-.217.472s-.543 2.468-.87 2.976c0 0-.036.509-.47.11 0 0-.978-3.122-1.05-3.231l-.327-.218s-.217-.29.145-.29l.942.036s.29.254-.109.544c0 0 .037.4.58 1.96 0 0 .145.581.326.146l.507-1.815-.145-.545s-.145-.254.072-.29c.037 0 .544-.036.616.145z" fill="#231F20"/>
        <path d="M61.034 28.13c0-.326-.217-.58-.688-.689v-.218l1.34.037c.217 0 1.014-.037 1.268-.037v.218c-.435.073-.652.327-.652.69v4.32c0 1.378.76 2.14 2.318 2.14 1.34 0 2.427-.616 2.427-2.032v-4.465c0-.326-.218-.58-.725-.69v-.217c.181 0 .87.036 1.123.036l1.123-.036v.218c-.507.109-.724.326-.724.69v4.21c0 1.887-1.087 2.976-3.478 2.976-2.21 0-3.332-1.016-3.332-2.795v-4.355zm9.454 6.825c.507-.11.724-.363.724-.69v-5.99c0-.507-.253-.725-.724-.87v-.218c.253.036.688.036.905.036.218 0 .508 0 .725-.036l5.18 6.098v-5.227c0-.327-.218-.58-.725-.69v-.217c.181 0 .87.036 1.087.036l1.123-.036v.217c-.507.11-.725.327-.725.69v7.187h-.326c-.18-.036-.58-.254-1.123-.871l-4.636-5.408v5.263c0 .326.181.58.688.69v.217c-.18 0-.87-.036-1.086-.036l-1.087.036v-.181zm40.894-1.634h.218c.108.436.362.871.724 1.09.362.253.942.398 1.413.398 1.05 0 1.702-.508 1.702-1.343 0-.834-.833-1.27-1.847-1.778-.76-.363-2.246-1.016-2.246-2.432 0-1.343 1.014-2.178 2.644-2.178 1.087 0 1.594.254 2.319.218v1.633h-.218c-.29-.944-1.159-1.306-2.1-1.306-1.051 0-1.45.617-1.45 1.234 0 .87.87 1.343 1.848 1.778 1.086.508 2.282 1.125 2.282 2.505 0 1.306-1.014 2.25-2.898 2.25-1.123 0-1.775-.326-2.354-.4l-.037-1.669zm22.277-1.452-2.101-3.375c-.362-.581-.652-.908-1.05-1.053v-.218c.29 0 1.086.037 1.304.037.217 0 1.05-.037 1.34-.037v.218c-.254.036-.399.182-.399.4 0 .18.109.399.254.616l1.557 2.577 1.486-2.577c.144-.254.253-.508.253-.69 0-.144-.109-.29-.362-.326v-.218c.253 0 .797.037.942.037.18 0 .797-.037 1.05-.037v.218c-.58.254-.942.726-1.268 1.343l-1.92 3.23m.11-.471v2.722c0 .254.217.617.651.69v.217l-1.34-.036c-.217 0-1.014.036-1.304.036v-.217c.47-.073.688-.436.688-.69v-2.577M94.43 27.187h4.963c.145 0 .435 0 .58-.073h.217l-.036 1.597h-.218c-.18-.508-.398-.907-1.34-.907H96.46v2.795h1.666c.254 0 .544-.036.652-.036.362-.073.543-.29.616-.617h.217v1.96h-.217c-.109-.327-.254-.545-.616-.654-.108-.036-.434-.072-.652-.072H96.46v3.303h2.318c1.014 0 1.304-.436 1.558-1.017l.217.037-.217 1.67c-.761-.073-1.232-.073-2.065-.073h-2.463l-1.376.036v-.218c.434-.072.688-.29.688-.726v-6.098c0-.363-.218-.617-.688-.69v-.217zm-12.64.98c0-.4-.254-.617-.725-.726v-.218l1.376.037c.217 0 1.087-.037 1.377-.037v.218c-.471.109-.725.29-.725.726v6.062c0 .399.254.617.725.726v.217l-1.377-.036c-.217 0-1.123.036-1.376.036v-.217c.47-.11.724-.29.724-.726v-6.062zm37.561 0c0-.4-.253-.617-.724-.726v-.218l1.376.037c.218 0 1.087-.037 1.377-.037v.218c-.471.109-.725.29-.725.726v6.062c0 .399.254.617.725.726v.217l-1.377-.036c-.217 0-1.123.036-1.376.036v-.217c.47-.11.724-.29.724-.726v-6.062zm6.882-.944c-2.716 0-3.15-.036-3.694-.072v1.633h.217c.217-.726.616-.907 1.123-.907h1.702v6.315c0 .436-.217.654-.724.726v.218c.254 0 1.159-.036 1.376-.036l1.377.036v-.218c-.471-.109-.725-.326-.725-.726v-6.315h1.703c.543 0 .942.181 1.123.907h.217v-1.633c-.58.036-1.014.072-3.695.072M104.573 34.229c0 .399.253.617.724.726v.217l-1.376-.036c-.218 0-1.05.036-1.34.036v-.217c.434-.073.688-.29.688-.726V28.13c0-.363-.218-.617-.689-.69v-.218l1.34.037c.4 0 1.486-.073 1.92-.073 1.884 0 2.97.798 2.97 2.141 0 1.053-.796 1.78-1.992 2.07 0 0 .29.145.544.471.326.4 1.231 1.706 1.63 2.142.362.472.87.98 1.376.98v.181c-.253.037-.652.11-.942.11-.652 0-1.159-.218-1.666-.836-.434-.544-1.159-1.633-1.594-2.177-.29-.363-.615-.617-1.231-.726-.109-.037-.217-.037-.362-.037v2.723zm0-3.267c.253.036.615.036.978.036 1.485 0 1.956-.871 1.956-1.633 0-1.09-.725-1.742-2.029-1.742a8.9 8.9 0 0 0-.942.072v3.267h.037zm-18.836-2.759c-.18-.399-.434-.653-.905-.762v-.218c.29 0 1.267.037 1.485.037.18 0 1.05-.037 1.34-.037v.218c-.254.036-.543.182-.543.472 0 .181.108.435.326.944l2.064 4.682 1.956-4.682c.145-.363.254-.654.254-.908s-.217-.435-.543-.472v-.217c.253 0 .905.036 1.086.036.181 0 .906-.036 1.196-.036v.217c-.471.146-.761.4-1.05 1.017l-2.862 6.751h-.652l-3.152-7.042z" fill="#FFF"/>
    </g>
</svg>
