<svg width="213" height="50" xmlns="http://www.w3.org/2000/svg" xmlns:xlink="http://www.w3.org/1999/xlink">
    <defs>
        <path id="a" d="M0 0h34.272v49.971H0z"/>
        <path id="c" d="M0 0h8.838v11.608H0z"/>
    </defs>
    <g fill="none" fill-rule="evenodd" opacity=".5">
        <path d="M54.08 20.466c0 .824.595 1.441 1.398 1.455.784.013 1.454-.629 1.468-1.406.014-.773-.638-1.439-1.42-1.453a1.401 1.401 0 0 0-1.446 1.404zm7.939 20.96c.003.771.674 1.444 1.442 1.444.763 0 1.43-.68 1.43-1.459.001-.778-.656-1.425-1.446-1.423a1.42 1.42 0 0 0-1.426 1.438zm-7.942-11.854c.009.74.66 1.388 1.405 1.4.758.01 1.453-.668 1.464-1.43.01-.8-.69-1.485-1.492-1.457-.782.027-1.387.68-1.377 1.487zM67.265 3.574c.776 0 1.458-.668 1.455-1.423-.003-.748-.702-1.44-1.455-1.442-.776-.001-1.412.653-1.405 1.445.006.837.584 1.421 1.405 1.42zm-7.958 30.3a1.437 1.437 0 0 0-1.438 1.416c-.005.798.684 1.477 1.479 1.457.762-.019 1.426-.707 1.41-1.462a1.457 1.457 0 0 0-1.451-1.41zm7.968 12.555a1.429 1.429 0 0 0-1.447 1.42c-.012.773.65 1.448 1.425 1.453.756.005 1.454-.676 1.468-1.433.013-.752-.67-1.433-1.446-1.44zM62.019 8.584a1.444 1.444 0 0 0 1.422 1.45c.777.01 1.44-.642 1.45-1.426.01-.766-.656-1.449-1.426-1.46-.772-.013-1.438.648-1.446 1.436zM51.63 24.959c.005-.773-.64-1.442-1.405-1.456-.759-.014-1.445.642-1.47 1.404-.027.793.65 1.481 1.452 1.478a1.426 1.426 0 0 0 1.424-1.426zm7.687-8.819a1.456 1.456 0 0 0 1.443-1.421c.007-.754-.66-1.438-1.42-1.458-.789-.02-1.485.676-1.47 1.47.016.782.66 1.41 1.447 1.41zM66.696 50c-.788-.416-1.448-.923-1.568-1.906-.013-.11-.382-.226-.596-.253-2.396-.292-4.828-.402-7.185-.88-5.999-1.217-11.382-3.762-15.777-8.09-4.114-4.051-6.56-8.897-6.341-14.795.178-4.779 2.188-8.831 5.404-12.297 4.24-4.57 9.57-7.26 15.557-8.764a36.498 36.498 0 0 1 8.392-1.103c.181-.003.362-.027.534-.04.556-1.424 1.4-2.036 2.51-1.834a2.162 2.162 0 0 1 1.787 2.047c.03.985-.652 1.905-1.586 2.138-1.164.29-2.052-.23-2.736-1.634-3.606.042-7.155.559-10.625 1.616-4.652 1.418-8.849 3.643-12.36 7.034-3.216 3.108-5.383 6.802-6.058 11.28-.02.133-.025.268-.054.597C41.698 13.324 50.086 8.363 61.276 8.17c.723-1.453 1.566-1.954 2.746-1.63a2.123 2.123 0 0 1 1.575 2.204 2.134 2.134 0 0 1-1.799 1.957c-1.165.175-2.027-.425-2.491-1.734-8.581-.3-18.645 3.838-24.23 14 .173-.14.348-.276.518-.418 3.947-3.286 8.26-5.94 13.272-7.246 1.904-.497 3.904-.626 5.856-.95.207-.035.472-.214.557-.397.472-1.007 1.415-1.555 2.43-1.354a2.168 2.168 0 0 1 1.757 2.078c.016.96-.71 1.898-1.635 2.109-1.071.244-2.09-.24-2.491-1.3-.201-.53-.532-.44-.91-.42-4.767.233-9.106 1.812-13.109 4.304-1.929 1.201-3.71 2.638-5.553 3.975-.18.13-.331.303-.503.462 2.648-.756 5.258-1.545 7.893-2.242 2.648-.7 5.342-1.173 8.133-1.258.074-.2.144-.41.226-.614.385-.958 1.325-1.468 2.38-1.294.937.155 1.66.954 1.747 1.93.086.976-.53 1.894-1.484 2.208-.941.31-2.015-.043-2.447-.966-.288-.615-.649-.65-1.218-.607-4.515.345-8.832 1.56-13.122 2.903-.56.175-1.117.363-1.658.648H48.02c.338-1.072 1.009-1.77 2.26-1.73 1.027.035 1.884.771 2.033 1.778.157 1.065-.438 2.037-1.438 2.347-1.031.32-2.135-.083-2.545-1.035-.221-.512-.503-.62-1.016-.617-2.99.024-5.982.012-8.973.012h-.661l-.043.168c1.212.413 2.415.855 3.637 1.234 3.71 1.152 7.48 2.017 11.373 2.273.463.03.769-.003 1.009-.518.423-.91 1.485-1.287 2.442-.999.957.289 1.602 1.189 1.55 2.164-.057 1.051-.802 1.859-1.878 2.035-.916.15-1.92-.385-2.232-1.313-.181-.538-.451-.641-.974-.668-3.69-.189-7.251-1.076-10.78-2.104-1.503-.437-2.988-.936-4.504-1.354 5.715 4.915 12.016 8.506 19.783 8.787.858-1.554 1.684-2.052 2.824-1.741.94.257 1.633 1.2 1.577 2.15-.058.99-.795 1.846-1.742 2.024-1.123.211-1.993-.366-2.59-1.73-7.817-.25-14.236-3.76-20.108-8.591 2.418 4.38 5.746 7.893 10.088 10.417 4.361 2.535 9.095 3.662 14.107 3.643.691-1.521 1.432-2.03 2.615-1.828a2.1 2.1 0 0 1 1.758 1.913c.08.952-.519 1.884-1.41 2.194-.945.329-2.11.022-2.497-.854-.328-.74-.841-.741-1.45-.75a27.565 27.565 0 0 1-9.618-1.86c-6.104-2.364-10.694-6.498-14.04-12.064-.111-.185-.23-.367-.344-.55l-.21.073c.294 1.076.517 2.178.894 3.225 1.55 4.303 4.403 7.613 8.074 10.255 4.751 3.42 10.108 5.278 15.895 5.955 1.289.15 2.59.198 3.889.257a.79.79 0 0 0 .582-.286c.649-.914 1.5-1.29 2.47-1.037.868.226 1.527 1.03 1.584 1.933.06.96-.45 1.712-1.46 2.156-.059.026-.107.078-.16.117h-1.096z" fill="#FFF"/>
        <g transform="translate(0 .029)">
            <mask id="b" fill="#fff">
                <use xlink:href="#a"/>
            </mask>
            <path d="M3.565 2.112A1.45 1.45 0 0 0 2.101.656C1.34.669.681 1.332.667 2.098a1.457 1.457 0 0 0 1.455 1.471c.842.002 1.437-.598 1.443-1.457zm7.97 33.174a1.44 1.44 0 0 0-1.459-1.465c-.8.004-1.471.682-1.463 1.478.009.759.672 1.422 1.438 1.438a1.47 1.47 0 0 0 1.484-1.451zm6.212-10.334a1.444 1.444 0 0 0 1.497 1.425c.77-.029 1.421-.693 1.424-1.453.003-.78-.694-1.469-1.484-1.469-.787 0-1.45.69-1.437 1.497zm-6.212-10.269c.001-.806-.67-1.478-1.466-1.47-.792.009-1.468.702-1.455 1.494.011.764.669 1.413 1.445 1.427a1.45 1.45 0 0 0 1.476-1.45zM4.486 41.394c.005.801.694 1.486 1.478 1.47.793-.016 1.45-.71 1.434-1.515a1.48 1.48 0 0 0-1.445-1.428 1.473 1.473 0 0 0-1.467 1.473zm-2.359 4.983a1.467 1.467 0 0 0-1.46 1.473c.008.763.666 1.43 1.43 1.448.792.019 1.487-.656 1.491-1.45a1.455 1.455 0 0 0-1.46-1.471zM15.34 29.518c0-.835-.63-1.49-1.44-1.497-.784-.007-1.477.694-1.468 1.483.01.797.706 1.484 1.487 1.467.76-.017 1.42-.692 1.421-1.453zM7.398 8.578c.007-.794-.682-1.495-1.463-1.49-.756.004-1.43.673-1.449 1.436-.02.81.627 1.498 1.429 1.518.792.02 1.476-.655 1.483-1.464zm7.943 11.848a1.457 1.457 0 0 0-1.434-1.429c-.799-.011-1.475.662-1.475 1.467 0 .806.677 1.476 1.478 1.464.808-.011 1.437-.671 1.43-1.502zM1.627 49.971c-.196-.106-.394-.208-.586-.32-.71-.42-1.14-1.302-1.022-2.092.129-.861.78-1.593 1.587-1.784.85-.202 1.812.089 2.225.828.283.504.632.537 1.103.522 7.64-.255 14.658-2.338 20.69-7.164 3.846-3.076 6.562-6.925 7.578-11.83.037-.178.064-.358.093-.537a1.116 1.116 0 0 0-.009-.518c-.132.203-.274.4-.397.608-3.942 6.643-9.533 11.161-17.07 13.17a28.294 28.294 0 0 1-7.169.935c-.403.002-.63.103-.816.52-.424.956-1.454 1.377-2.456 1.107-.973-.262-1.597-1.125-1.548-2.143.045-.944.738-1.768 1.635-1.944 1.078-.211 2.042.276 2.436 1.286.14.358.275.544.71.533 10.55-.26 18.455-4.984 23.821-14.006.04-.068.065-.147.15-.346-1.13.881-2.124 1.707-3.167 2.464-4.069 2.954-8.486 5.152-13.494 6.002-1.053.179-2.128.243-3.196.32-.359.027-.55.118-.695.476-.404.991-1.387 1.5-2.368 1.295a2.155 2.155 0 0 1-1.71-2.042c-.023-.964.694-1.885 1.636-2.101 1.005-.231 2.043.227 2.407 1.218.261.712.758.525 1.212.5 3.461-.202 6.726-1.153 9.843-2.636 3.19-1.518 6.09-3.481 8.763-5.783.12-.103.253-.19.38-.286l-.088-.162c-.192.061-.385.12-.575.184-4.04 1.37-8.13 2.557-12.37 3.14-.812.112-1.633.197-2.451.214-.493.01-.704.166-.855.639-.298.927-1.289 1.49-2.207 1.35-1.025-.156-1.78-.924-1.861-1.893-.085-1.008.519-1.945 1.438-2.231 1.006-.313 2.042.059 2.509.985.212.421.46.528.897.502 3.456-.208 6.821-.91 10.133-1.877 1.695-.495 3.364-1.077 5.046-1.62l-.028-.19c-.165-.013-.33-.036-.496-.036-3.127-.002-6.255.006-9.383-.01-.415-.002-.63.085-.802.513-.382.953-1.36 1.407-2.352 1.192-1.01-.22-1.667-1.028-1.663-2.047.005-1.008.704-1.885 1.653-2.074 1.041-.206 2.029.276 2.416 1.223.128.314.203.55.635.548 3.332-.018 6.664-.01 10.036-.105-.14-.067-.272-.15-.418-.198-4.246-1.4-8.53-2.65-12.985-3.21-.407-.052-.824-.036-1.225-.113-.722-.14-1.236-.096-1.632.71-.427.869-1.549 1.12-2.454.771-.894-.345-1.435-1.26-1.323-2.238.108-.945.847-1.668 1.854-1.815.914-.134 1.841.396 2.202 1.265.087.208.145.426.219.646 5.557.265 10.804 1.86 16.152 3.644-.125-.18-.163-.268-.228-.325-4.3-3.707-9.039-6.631-14.635-7.943-1.479-.347-3.015-.452-4.526-.66-.352-.047-.617-.01-.787.426-.408 1.05-1.343 1.524-2.41 1.32-.937-.178-1.677-1.088-1.68-2.063-.001-1.002.73-1.878 1.74-2.088.973-.201 1.924.329 2.367 1.32.055.125.103.252.175.43 3.777.053 7.365.997 10.8 2.574 3.414 1.568 6.49 3.655 9.377 6.056-2.112-3.851-4.957-7.03-8.592-9.514C18.746 9.999 12.693 8.74 8.094 8.89c-.346 1.05-.965 1.789-2.196 1.767-1.047-.018-1.894-.736-2.053-1.747-.163-1.033.456-2.044 1.441-2.356.988-.312 2.075.081 2.491 1.016.225.506.505.627 1.019.639 4.918.11 9.566 1.241 13.84 3.735 4.397 2.566 7.785 6.122 10.328 10.503.112.193.222.386.482.545-.126-.69-.22-1.387-.386-2.067-1.192-4.884-4.07-8.637-7.988-11.653-4.546-3.5-9.752-5.457-15.394-6.293-1.62-.24-3.268-.29-4.903-.433-.357-.03-.556.065-.719.436-.438 1-1.457 1.452-2.49 1.185C.674 3.938-.023 3.001.008 2.074.042 1.063.778.23 1.805.034c.94-.178 1.998.352 2.3 1.3.187.584.535.557.977.573 7.135.254 13.77 2.1 19.647 6.258 3.887 2.748 6.929 6.215 8.498 10.765 2.126 6.165.929 11.852-2.86 17.032-3.406 4.657-8.074 7.63-13.43 9.599-3.797 1.395-7.735 2.092-11.778 2.209-.271.008-.542.027-.877.045-.066 1.112-.722 1.765-1.696 2.156h-.96z" fill="#FFF" mask="url(#b)"/>
        </g>
        <g transform="translate(204.162 19.195)">
            <mask id="d" fill="#fff">
                <use xlink:href="#c"/>
            </mask>
            <path d="M8.838 1.16H5.14v10.448H3.653V1.186H0V.085C.111.059.236.005.362.005 3.03-.002 5.699-.002 8.368.001c.157 0 .313.043.47.066V1.16z" fill="#FFF" mask="url(#d)"/>
        </g>
        <path d="M153.34 25.073c0-1.273-.014-2.546.007-3.818.01-.597-.221-.884-.838-.88-1.595.012-3.19.01-4.785.001-.567-.003-.827.24-.825.821.012 2.545.012 5.09 0 7.634-.002.59.278.817.835.816 1.595-.005 3.19-.005 4.784 0 .562 0 .834-.244.827-.826-.016-1.249-.005-2.499-.005-3.748m1.44-.003c0 1.319.002 2.637 0 3.956-.002.969-.763 1.806-1.728 1.818-1.96.025-3.921.026-5.881-.001-.938-.013-1.704-.847-1.705-1.768-.003-2.705-.003-5.41 0-8.115 0-.986.758-1.756 1.76-1.763a464.59 464.59 0 0 1 5.812.001c.99.007 1.74.79 1.741 1.78.003 1.364.001 2.728.001 4.092M97.318 30.75c-.905.258-1.454-.004-1.946-.797-1.622-2.607-3.334-5.16-5.013-7.732-.11-.168-.235-.326-.422-.582v8.37c0 .778-.402 1.076-1.15.787-.143-.056-.25-.39-.251-.596-.017-2.617-.011-5.233-.011-7.85v-2.975c1.079-.333 1.378-.235 1.912.594l4.994 7.744c.147.228.295.453.557.854v-9.291h1.33V30.75zM166.355 19.231h1.4c.014.22.037.417.037.614.003 3.072.003 6.143.001 9.216 0 .931-.752 1.765-1.69 1.781-1.826.03-3.652.03-5.477 0-.938-.014-1.712-.848-1.713-1.765-.003-3.252 0-6.505 0-9.82h1.416v.756c0 2.844-.002 5.689.001 8.533.001.97.134 1.097 1.115 1.099 1.278.002 2.556.002 3.834 0 .964-.002 1.075-.108 1.075-1.048.002-2.844 0-5.689 0-8.533v-.833zM200.328 19.22h1.399c.014.24.038.458.038.675.003 3.028.003 6.056.001 9.084 0 1.048-.776 1.858-1.831 1.869a253.49 253.49 0 0 1-5.274-.002c-1.021-.011-1.797-.824-1.797-1.83-.003-3.052-.002-6.102 0-9.153 0-.199.018-.398.03-.632h1.408v.748c0 2.89-.002 5.782.001 8.673 0 .838.155.99 1.007.992 1.324.005 2.648.004 3.972 0 .895-.002 1.044-.147 1.045-1.024.002-2.868 0-5.737 0-8.605v-.794zM182.846 24.998c1.422 0 2.785.009 4.149-.005.447-.005.728-.234.728-.717 0-1.068.036-2.138-.028-3.202-.014-.24-.368-.65-.58-.659-1.405-.06-2.813-.03-4.27-.03v4.613zm-1.452-5.804H187.145c1.332.003 2.019.682 2.019 1.997v3.073c-.001 1.172-.77 1.936-1.969 1.942-1.434.007-2.867.002-4.396.002v4.61h-1.405V19.194zM120.502 19.274h1.382v.774c0 2.981.002 5.962 0 8.942-.001 1.017-.76 1.82-1.785 1.832-1.756.02-3.513.019-5.27 0-.969-.01-1.802-.783-1.806-1.686-.014-3.186-.004-6.371-.002-9.556 0-.087.023-.174.042-.302h1.3c.012.271.035.534.035.798.003 2.82 0 5.642.003 8.463 0 .968.154 1.122 1.102 1.124 1.347.003 2.693.006 4.039-.001.783-.004.957-.182.958-.977.004-2.844.002-5.688.002-8.532v-.879zM138.926 38.09h1.268V11.838h-1.268zM102.933 25.014c1.463 0 2.85.01 4.237-.005.448-.004.725-.243.725-.722.003-1.067.037-2.137-.025-3.2-.015-.251-.354-.682-.558-.69-1.444-.06-2.892-.033-4.379-.033v4.65zm-.03 1.17v4.494c-.12.077-.156.12-.196.123-1.168.106-1.168.105-1.169-1.052V19.283c.275-.02.473-.049.672-.049 1.757-.003 3.513-.007 5.27 0 1.08.005 1.798.72 1.8 1.777a901.69 901.69 0 0 1 .001 3.276c-.001 1.108-.747 1.878-1.863 1.892-1.232.016-2.464.004-3.696.004h-.819zM173.845 20.383h-3.656v-1.125h8.786v1.097h-3.64V30.8h-1.49zM127.977 20.356h-3.645v-1.074h8.71v1.052h-3.652v.893c0 2.932-.007 5.865.007 8.797.003.512-.01.837-.7.83-.647-.006-.735-.246-.73-.802.023-2.933.01-5.865.01-8.798v-.898zM83.05 30.784h1.278V19.276H83.05z" fill="#FFF"/>
    </g>
</svg>
