<svg width="118" height="24" xmlns="http://www.w3.org/2000/svg">
    <defs>
        <linearGradient x1="50.001%" y1="13.262%" x2="50.001%" y2="89.978%" id="a">
            <stop stop-color="#089CFB" offset="0%"/>
            <stop stop-color="#A8F2F1" offset="100%"/>
        </linearGradient>
        <linearGradient x1="50%" y1="23.626%" x2="50%" y2="92.064%" id="b">
            <stop stop-color="#E1BDF1" offset="0%"/>
            <stop stop-color="#2A72EB" offset="100%"/>
        </linearGradient>
    </defs>
    <g fill="none" fill-rule="evenodd">
        <path d="M60.588 6.898c1.965 0 3.554.51 4.725 1.516 1.169 1.004 1.737 2.283 1.737 3.91 0 1.749-.59 3.109-1.804 4.157-1.215 1.05-2.835 1.583-4.815 1.583-2.1 0-3.786-.633-5.013-1.883l-.746-.76V22h-4.656V7.323h4.543v2.422l.76-.844c1.196-1.33 2.968-2.003 5.27-2.003zm-21.948 0c2.655 0 4.792.525 6.353 1.56 1.524 1.012 2.266 2.328 2.266 4.023 0 1.695-.742 3.01-2.266 4.023-1.56 1.035-3.698 1.56-6.353 1.56-2.656 0-4.797-.525-6.364-1.56C30.744 15.49 30 14.175 30 12.48c0-1.695.744-3.01 2.276-4.023 1.568-1.035 3.709-1.56 6.364-1.56zm37.396-3.741v4.166h4.762v2.399h-4.762v2.625c0 1.146.527 2.513 3.04 2.513.653 0 1.208-.042 1.677-.128v2.836c-.82.27-1.918.406-3.271.406-1.957 0-3.496-.348-4.572-1.038-1.03-.659-1.53-1.78-1.53-3.426V9.722h-3.213v-2.4h3.213V4.74l4.656-1.582zm12.602 4.166v10.316h-4.655V7.323h4.655zm24.158-.425c1.678 0 2.977.477 3.86 1.417.892.949 1.344 2.35 1.344 4.166v5.158h-4.656v-4.397c0-1.038-.24-1.859-.715-2.443-.497-.611-1.212-.921-2.124-.921-.911 0-1.633.312-2.144.93-.49.591-.74 1.432-.74 2.5v4.33h-4.633v-4.396c0-2.78-1.556-3.364-2.862-3.364s-2.861.595-2.861 3.43v4.33h-4.656V7.324h4.565v4.031l.834-1.873a3.999 3.999 0 0 1 1.707-1.903c.783-.452 1.73-.68 2.815-.68 2.187 0 3.646.833 4.459 2.547l.345.729.42-.688c1.063-1.742 2.712-2.588 5.042-2.588zM38.64 9.318c-1.101 0-2.01.286-2.701.848-.718.583-1.081 1.362-1.081 2.315 0 .953.363 1.732 1.08 2.315.69.562 1.6.847 2.702.847 1.088 0 1.989-.285 2.68-.847.717-.583 1.08-1.363 1.08-2.315 0-.953-.363-1.732-1.08-2.315-.692-.562-1.593-.847-2.68-.847zm19.814-.022c-1.122 0-2.052.262-2.761.777-.753.546-1.134 1.289-1.134 2.207v.067c0 .998.375 1.807 1.115 2.405.714.576 1.649.868 2.78.868 1.14 0 2.05-.296 2.706-.882.67-.597 1.01-1.417 1.01-2.436 0-.925-.35-1.672-1.041-2.217-.66-.523-1.56-.789-2.675-.789zM88.728 2v3.025h-4.835V2h4.835z" fill="#FFF"/>
        <g>
            <path d="M11.269 3.363c-.15.173-.356.456-.585.854.357-.45.889-.958 1.457-.946 1.136.025 2.965 2.486 2.97 7.925.005 5.609-1.075 7.641-1.888 8.825-2.557 4.89-7.063 2.45-7.258 2.34A12.021 12.021 0 0 0 12.042 24c6.65 0 12.042-5.373 12.042-12 0-4.853-2.89-9.033-7.05-10.924a5.2 5.2 0 0 0-.833-.068c-2.843 0-4.932 2.355-4.932 2.355" fill="url(#a)"/>
            <path d="M12.042 0C5.392 0 0 5.373 0 12c0 4.415 2.394 8.274 5.959 10.358l.006.004c.195.108 4.701 2.55 7.258-2.341l.04-.077s-.492.759-1.298.759c-.807 0-1.554-1.166-1.79-1.76-.236-.594-1.212-2.508-1.181-7.369.023-3.693.966-6.1 1.69-7.357.23-.398.436-.681.585-.854 0 0 2.506-2.825 5.766-2.287A12.094 12.094 0 0 0 12.042 0z" fill="url(#b)"/>
        </g>
    </g>
</svg>
