<svg width="78" height="40" xmlns="http://www.w3.org/2000/svg">
    <g fill="none" fill-rule="evenodd" opacity=".4">
        <path d="M64.134 12.766V40h-8.489V12.766h8.49zM8.492 0C8.49 13.334 8.493 26.667 8.49 40c-2.83-.004-5.66.003-8.489-.003V5.516C.007 3.676-.009 1.838.01 0c2.828.001 5.655.002 8.483 0zm27.7 0c-.004 13.333 0 26.666-.002 39.998h-8.486L27.7.004c2.83-.005 5.66 0 8.49-.002zm13.86 12.767-.001 27.231h-8.484c-.002-9.076 0-18.152-.001-27.227 2.828-.003 5.657.004 8.485-.004zM22.353.002v27.213h-8.487L13.868.002h8.486zM41.567 0c2.828.005 5.657 0 8.485.002v7.945c-2.83-.002-5.659 0-8.488-.002.004-2.648-.002-5.297.003-7.945zM78 .005v7.937H55.64V.005H78z" fill="#FFF"/>
    </g>
</svg>
