<svg width="173" height="40" xmlns="http://www.w3.org/2000/svg" xmlns:xlink="http://www.w3.org/1999/xlink">
    <defs>
        <path id="a" d="M0 0h13.553v19.23H0z"/>
    </defs>
    <g fill="none" fill-rule="evenodd" opacity=".4">
        <path d="M8.162 28.252c.621 0 1.143.211 1.564.633.422.422.633.943.633 1.564 0 .633-.214 1.175-.641 1.626a2.067 2.067 0 0 1-1.556.677c-.598 0-1.107-.226-1.529-.677A2.296 2.296 0 0 1 6 30.449c0-.633.208-1.157.624-1.573.416-.416.929-.624 1.538-.624M36.217 7 25.442 32.752h-2.584L33.58 7zM81.076 32.277H78.3v-21.27l-3.744 10.178H71.83l-3.744-10.178v21.27h-2.778V7.474h3.745l4.148 11.303 4.131-11.303h3.744zM100.447 32.277H92.96V9.847h-4.782V7.474h7.524v22.43h4.746zM120.644 26.846v-3.322c-2.473.222-4.169.43-5.089.624-.92.193-1.717.553-2.39 1.08-.674.528-1.01 1.243-1.01 2.145 0 .82.286 1.483.86 1.987.574.504 1.307.756 2.197.756.973 0 1.94-.291 2.901-.871.961-.58 1.804-1.38 2.531-2.4m3.2 5.433h-2.725c-.223-.74-.334-1.723-.334-2.953-1.559 2.285-3.68 3.427-6.364 3.427-1.359 0-2.557-.483-3.594-1.45s-1.556-2.212-1.556-3.735c0-.903.182-1.7.545-2.391.363-.691.896-1.274 1.6-1.75.703-.474 1.558-.85 2.566-1.124 1.008-.275 2.203-.466 3.586-.571l3.076-.246v-.88c0-3.14-1.465-4.71-4.395-4.71-.69 0-1.567.149-2.627.448-1.06.299-1.972.653-2.734 1.064l-.72-1.97c2.496-1.277 4.816-1.915 6.96-1.915 4.172 0 6.258 2.209 6.258 6.627v7.875c0 1.593.153 3.01.457 4.254M133.617 19.059v7.61a7.51 7.51 0 0 0 2.092 2.585c.88.692 1.787 1.037 2.724 1.037 1.477 0 2.652-.703 3.525-2.11.873-1.405 1.31-3.134 1.31-5.184 0-2.11-.417-3.821-1.249-5.133-.832-1.313-1.992-1.97-3.48-1.97-1.934 0-3.574 1.056-4.922 3.165zm0-2.725c.61-.843 1.433-1.523 2.47-2.04a7.277 7.277 0 0 1 3.278-.772c2.133 0 3.794.855 4.983 2.566 1.19 1.71 1.785 3.96 1.785 6.75 0 2.825-.633 5.183-1.899 7.075-1.265 1.893-2.959 2.839-5.08 2.839-1.137 0-2.2-.284-3.19-.852a6.476 6.476 0 0 1-2.347-2.26v2.638h-2.742V7.475h2.742v8.859z" fill="#FFF"/>
        <g transform="translate(152.795 13.521)">
            <mask id="b" fill="#fff">
                <use xlink:href="#a"/>
            </mask>
            <path d="M11.883 3.059c-1.535-.504-2.982-.756-4.342-.756-1.488 0-2.666.249-3.533.747S2.707 4.213 2.707 5.045c0 .528.199.988.598 1.38.398.393 1.195.759 2.391 1.099l2.619.756c1.207.34 2.191.747 2.953 1.221.761.475 1.333 1.049 1.714 1.723.38.674.571 1.456.571 2.347 0 1.746-.733 3.126-2.197 4.139-1.465 1.014-3.328 1.521-5.59 1.521-2.25 0-4.108-.34-5.572-1.02l.527-2.373c1.535.727 3.182 1.09 4.939 1.09 1.524 0 2.763-.284 3.718-.852.955-.569 1.433-1.322 1.433-2.259 0-.633-.238-1.198-.712-1.696-.475-.499-1.591-1.017-3.349-1.556a214.374 214.374 0 0 1-3.129-.976 6.535 6.535 0 0 1-1.863-.958A4.295 4.295 0 0 1 .448 7.12C.15 6.534 0 5.877 0 5.151c0-1.582.692-2.836 2.074-3.762C3.457.463 5.291 0 7.576 0c1.477 0 3.118.252 4.922.756l-.615 2.303z" fill="#FFF" mask="url(#b)"/>
        </g>
    </g>
</svg>
