<svg width="24" height="48" xmlns="http://www.w3.org/2000/svg">
    <defs>
        <linearGradient x1="50.001%" y1="13.262%" x2="50.001%" y2="89.978%" id="a">
            <stop stop-color="#089CFB" offset="0%"/>
            <stop stop-color="#A8F2F1" offset="100%"/>
        </linearGradient>
        <linearGradient x1="50%" y1="23.626%" x2="50%" y2="92.064%" id="b">
            <stop stop-color="#E1BDF1" offset="0%"/>
            <stop stop-color="#2A72EB" offset="100%"/>
        </linearGradient>
        <linearGradient x1="50%" y1="0%" x2="50%" y2="66.616%" id="c">
            <stop stop-opacity=".596" offset="0%"/>
            <stop offset="100%"/>
        </linearGradient>
    </defs>
    <g fill="none" fill-rule="evenodd">
        <path d="M11.23 3.363a5.678 5.678 0 0 0-.583.854c.356-.45.885-.958 1.451-.946 1.133.025 2.955 2.486 2.96 7.925.005 5.609-1.071 7.641-1.88 8.825-2.549 4.89-7.04 2.45-7.234 2.34A11.947 11.947 0 0 0 12 24c6.628 0 12-5.373 12-12 0-4.853-2.88-9.033-7.024-10.924a5.164 5.164 0 0 0-.831-.068c-2.834 0-4.915 2.355-4.915 2.355" fill="url(#a)"/>
        <path d="M12 0C5.372 0 0 5.373 0 12c0 4.415 2.385 8.274 5.938 10.358l.006.004c.194.108 4.685 2.55 7.233-2.341l.04-.077s-.49.759-1.294.759-1.548-1.166-1.784-1.76c-.235-.594-1.207-2.508-1.177-7.369.024-3.693.963-6.1 1.685-7.357.228-.398.434-.681.583-.854 0 0 2.498-2.825 5.746-2.287A11.928 11.928 0 0 0 12 0z" fill="url(#b)"/>
        <g>
            <path d="M11.23 3.363a5.678 5.678 0 0 0-.583.854c.356-.45.885-.958 1.451-.946 1.133.025 2.955 2.486 2.96 7.925.005 5.609-1.071 7.641-1.88 8.825-2.549 4.89-7.04 2.45-7.234 2.34A11.947 11.947 0 0 0 12 24c6.628 0 12-5.373 12-12 0-4.853-2.88-9.033-7.024-10.924a5.164 5.164 0 0 0-.831-.068c-2.834 0-4.915 2.355-4.915 2.355" fill="url(#a)" transform="matrix(1 0 0 -1 0 48)"/>
            <path d="M12 0C5.372 0 0 5.373 0 12c0 4.415 2.385 8.274 5.938 10.358l.006.004c.194.108 4.685 2.55 7.233-2.341l.04-.077s-.49.759-1.294.759-1.548-1.166-1.784-1.76c-.235-.594-1.207-2.508-1.177-7.369.024-3.693.963-6.1 1.685-7.357.228-.398.434-.681.583-.854 0 0 2.498-2.825 5.746-2.287A11.928 11.928 0 0 0 12 0z" fill="url(#b)" transform="matrix(1 0 0 -1 0 48)"/>
            <path fill="url(#c)" d="M0 0h24v24H0z" transform="translate(0 24)"/>
        </g>
    </g>
</svg>
